<svg width="526.5575439453125px" height="248.60750732421874px" xmlns="http://www.w3.org/2000/svg" viewBox="-13.278771972656273 -49.30375366210937 526.5575439453125 248.60750732421874" style="background: rgba(0, 0, 0, 0);" preserveAspectRatio="xMidYMid"><defs><filter id="editing-jagged" x="-100%" y="-100%" width="300%" height="300%"><feTurbulence result="turb" baseFrequency="0.05" numOctaves="1" seed="1"></feTurbulence><feDisplacementMap in="SourceGraphic" in2="turb" scale="10"></feDisplacementMap></filter></defs><g filter="url(#editing-jagged)"><g transform="translate(63.85685974359512, 136.6599998474121)"><path d="M7.22-12.26L7.22-12.26L7.22-12.26Q7.90-11.09 8.23-10.42L8.23-10.42L8.23-10.42Q8.57-9.74 8.90-9.41L8.90-9.41L8.90-9.41Q9.07-8.06 8.23-6.97L8.23-6.97L8.23-6.97Q7.39-5.88 6.38-5.88L6.38-5.88L6.38-5.88Q5.71-5.88 4.79-6.38L4.79-6.38L4.79-6.38Q3.86-6.89 3.19-7.22L3.19-7.22L3.19-7.22Q1.01-8.40 0.67-10.25L0.67-10.25L0.67-10.25Q0.50-11.59 1.01-12.26L1.01-12.26L1.01-12.26Q1.51-12.94 2.02-13.78L2.02-13.78L2.02-13.78Q3.36-14.45 3.70-14.62L3.70-14.62L3.70-14.62Q4.03-14.78 4.20-14.78L4.20-14.78L4.20-14.78Q5.38-14.78 6.13-14.03L6.13-14.03L6.13-14.03Q6.89-13.27 7.22-12.26ZM14.78-4.87L14.78-4.87L14.78-3.70L14.78-3.70Q14.11-2.35 13.61-2.10L13.61-2.10L13.61-2.10Q13.10-1.85 12.43-1.85L12.43-1.85L12.43-1.85Q11.59-1.85 10.84-2.44L10.84-2.44L10.84-2.44Q10.08-3.02 10.08-4.20L10.08-4.20L10.08-4.20Q10.92-5.88 12.77-5.88L12.77-5.88L12.77-5.88Q14.11-5.88 14.78-4.87ZM37.13-18.98L37.13-18.98L36.12-19.82L36.12-19.82Q35.95-21 36.62-21.67L36.62-21.67L36.62-21.67Q36.96-22.01 37.30-22.34L37.30-22.34L37.30-22.34Q37.63-22.68 37.80-23.18L37.80-23.18L37.80-23.18Q37.97-23.35 38.47-23.35L38.47-23.35L38.47-23.35Q39.14-23.35 40.15-22.34L40.15-22.34L40.15-22.34Q40.49-21 39.65-19.91L39.65-19.91L39.65-19.91Q38.81-18.82 37.80-18.82L37.80-18.82L37.80-18.82Q37.30-18.82 37.13-18.98ZM53.93-2.02L53.93-2.02L53.26-1.68L53.26-1.68Q52.08-1.34 51.41-0.67L51.41-0.67L51.41-0.67Q49.56 0.50 48.89 0.50L48.89 0.50L48.89 0.50Q48.05 0.67 47.04 1.01L47.04 1.01L47.04 1.01Q45.53 1.68 45.36 1.51L45.36 1.51L44.35 1.51L44.35 1.51Q42.84 1.85 42.08 1.85L42.08 1.85L42.08 1.85Q41.33 1.85 40.82 2.02L40.82 2.02L40.82 2.02Q39.48 2.35 38.81 2.35L38.81 2.35L38.81 2.35Q37.80 2.02 36.96 2.02L36.96 2.02L36.96 2.02Q36.46 2.02 35.87 2.02L35.87 2.02L35.87 2.02Q35.28 2.02 34.78 1.85L34.78 1.85L34.78 1.85Q33.94 1.51 33.35 1.01L33.35 1.01L33.35 1.01Q32.76 0.50 32.42 0L32.42 0L32.42 0Q31.58-1.01 30.41-1.68L30.41-1.68L30.41-1.68Q28.73-3.36 28.06-3.36L28.06-3.36L27.55-3.36L27.55-3.36Q26.88-3.36 26.54-3.70L26.54-3.70L26.54-3.70Q26.04-4.03 25.54-4.12L25.54-4.12L25.54-4.12Q25.03-4.20 24.70-4.37L24.70-4.37L24.70-4.37Q23.86-4.37 23.52-5.21L23.52-5.21L23.52-5.21Q21.84-6.05 20.66-7.22L20.66-7.22L20.66-7.22Q19.82-7.73 19.15-8.23L19.15-8.23L19.15-8.23Q18.48-8.74 17.64-9.07L17.64-9.07L17.64-9.07Q16.80-9.91 16.46-10.00L16.46-10.00L16.46-10.00Q16.13-10.08 15.79-10.25L15.79-10.25L15.79-10.25Q15.46-10.75 15.04-11.34L15.04-11.34L15.04-11.34Q14.62-11.93 14.28-12.26L14.28-12.26L14.28-12.26Q13.61-13.27 13.27-14.28L13.27-14.28L13.27-14.28Q12.77-16.30 12.10-16.97L12.10-16.97L12.10-16.97Q11.26-18.48 10.75-20.33L10.75-20.33L10.75-20.33Q10.25-21.34 9.41-22.01L9.41-22.01L9.41-22.01Q8.90-22.85 8.57-23.44L8.57-23.44L8.57-23.44Q8.23-24.02 8.06-24.36L8.06-24.36L8.06-24.36Q7.56-27.22 7.06-27.89L7.06-27.89L7.06-27.89Q6.38-28.22 6.05-28.73L6.05-28.73L6.05-28.73Q5.71-29.23 5.38-30.07L5.38-30.07L5.38-30.07Q5.21-30.74 5.21-31.25L5.21-31.25L5.21-31.25Q4.87-33.26 4.37-34.94L4.37-34.94L4.37-34.94Q3.86-36.12 4.03-36.62L4.03-36.62L4.03-36.62Q3.70-37.46 3.44-38.05L3.44-38.05L3.44-38.05Q3.19-38.64 2.86-38.98L2.86-38.98L2.86-38.98Q2.86-39.82 2.69-40.15L2.69-40.15L2.69-40.15Q1.68-43.01 2.35-44.52L2.35-44.52L2.35-44.52Q2.52-45.02 2.60-45.36L2.60-45.36L2.60-45.36Q2.69-45.70 2.86-46.03L2.86-46.03L2.86-46.03Q3.53-46.70 3.53-48.05L3.53-48.05L3.53-48.05Q3.36-48.89 4.03-50.57L4.03-50.57L4.03-50.57Q4.37-51.41 4.70-52.33L4.70-52.33L4.70-52.33Q5.04-53.26 5.21-53.76L5.21-53.76L5.21-53.76Q5.71-55.27 6.05-56.20L6.05-56.20L6.05-56.20Q6.38-57.12 7.06-57.79L7.06-57.79L7.06-57.79Q7.90-59.14 8.06-61.32L8.06-61.32L8.06-61.32Q7.39-62.33 7.90-63.67L7.90-63.67L8.40-66.36L8.40-67.70L8.40-67.70Q8.23-68.21 8.90-70.22L8.90-70.22L8.90-70.22Q9.07-71.06 9.16-71.82L9.16-71.82L9.16-71.82Q9.24-72.58 9.24-73.58L9.24-73.58L9.24-73.58Q9.07-74.42 9.58-75.43L9.58-75.43L9.58-75.43Q9.74-76.61 9.74-76.61L9.74-76.61L9.74-76.61Q10.08-77.78 10.16-78.62L10.16-78.62L10.16-78.62Q10.25-79.46 11.09-79.97L11.09-79.97L11.09-79.97Q11.09-80.47 11.26-81.23L11.26-81.23L11.26-81.23Q11.42-81.98 11.93-82.32L11.93-82.32L11.93-82.32Q13.27-86.86 15.96-90.72L15.96-90.72L15.96-90.72Q17.30-91.39 17.81-92.90L17.81-92.90L17.81-92.90Q18.14-93.24 18.48-93.49L18.48-93.49L18.48-93.49Q18.82-93.74 19.15-93.91L19.15-93.91L19.15-93.91Q19.49-94.25 19.82-95.26L19.82-95.26L19.82-95.26Q20.83-95.93 21.50-96.94L21.50-96.94L21.50-96.94Q21.84-97.27 22.76-98.03L22.76-98.03L22.76-98.03Q23.69-98.78 24.61-99.62L24.61-99.62L24.61-99.62Q25.54-100.46 26.46-101.05L26.46-101.05L26.46-101.05Q27.38-101.64 27.72-101.81L27.72-101.81L27.72-101.81Q28.90-101.98 29.40-102.82L29.40-102.82L31.08-103.99L31.08-103.99Q31.92-104.16 32.42-105L32.42-105L32.42-105Q32.93-105.17 33.43-105.25L33.43-105.25L33.43-105.25Q33.94-105.34 34.61-105.67L34.61-105.67L34.61-105.67Q35.45-106.18 36.62-106.18L36.62-106.18L38.14-106.18L40.49-106.18L40.49-106.18Q41.50-105.67 42.67-105.67L42.67-105.67L42.67-105.67Q43.68-105.67 44.52-105.76L44.52-105.76L44.52-105.76Q45.36-105.84 46.20-106.01L46.20-106.01L46.20-106.01Q47.04-106.01 47.71-105.92L47.71-105.92L47.71-105.92Q48.38-105.84 49.06-105.17L49.06-105.17L49.06-105.17Q50.40-105.17 50.74-104.33L50.74-104.33L50.74-104.33Q53.42-103.99 54.26-103.82L54.26-103.82L54.26-103.82Q55.10-103.66 56.45-103.32L56.45-103.32L56.45-103.32Q57.96-102.65 58.97-101.47L58.97-101.47L60.31-99.46L60.31-99.46Q60.48-99.12 60.48-98.78L60.48-98.78L60.48-98.78Q60.48-98.45 60.65-98.11L60.65-98.11L60.65-98.11Q60.98-96.26 61.32-95.84L61.32-95.84L61.32-95.84Q61.66-95.42 61.99-95.09L61.99-95.09L61.99-95.09Q62.33-94.75 62.66-93.74L62.66-93.74L62.66-93.74Q63.50-90.55 64.85-88.96L64.85-88.96L64.85-88.96Q66.19-87.36 67.87-86.02L67.87-86.02L67.87-86.02Q68.21-85.18 68.46-84.59L68.46-84.59L68.46-84.59Q68.71-84 69.05-83.33L69.05-83.33L69.05-83.33Q69.38-82.15 70.06-81.31L70.06-81.31L70.06-81.31Q70.39-79.13 70.06-78.12L70.06-78.12L69.05-75.26L69.05-75.26Q68.21-74.09 67.54-73.08L67.54-73.08L67.54-73.08Q66.86-72.07 65.52-71.23L65.52-71.23L65.52-71.23Q64.85-71.06 64.26-70.90L64.26-70.90L64.26-70.90Q63.67-70.73 62.83-70.39L62.83-70.39L62.83-70.39Q61.99-70.06 61.32-70.06L61.32-70.06L61.32-70.06Q60.65-70.06 59.98-70.06L59.98-70.06L59.98-70.06Q59.30-70.06 57.96-69.72L57.96-69.72L55.78-69.22L55.78-69.22Q54.94-69.38 53.93-69.38L53.93-69.38L53.93-69.38Q53.42-70.22 52.08-70.56L52.08-70.56L52.08-70.56Q51.74-70.90 51.49-70.98L51.49-70.98L51.49-70.98Q51.24-71.06 50.90-71.40L50.90-71.40L49.73-72.07L49.73-72.07Q49.06-73.08 49.06-73.75L49.06-73.75L49.06-73.75Q48.89-74.42 48.22-75.43L48.22-75.43L48.72-77.28L48.72-77.28Q48.72-77.95 49.22-78.62L49.22-78.62L49.22-78.62Q50.06-81.14 49.22-83.75L49.22-83.75L49.22-83.75Q48.38-86.35 46.70-87.70L46.70-87.70L46.70-87.70Q45.86-88.20 45.53-88.37L45.53-88.37L44.35-88.87L44.35-88.87Q42.67-88.70 41.16-88.03L41.16-88.03L41.16-88.03Q40.32-87.86 39.56-87.70L39.56-87.70L39.56-87.70Q38.81-87.53 37.80-87.36L37.80-87.36L37.80-87.36Q36.96-87.36 36.62-86.86L36.62-86.86L36.62-86.86Q35.95-86.35 34.78-85.76L34.78-85.76L34.78-85.76Q33.60-85.18 32.93-85.18L32.93-85.18L32.93-85.18Q32.42-85.18 32.09-84.34L32.09-84.34L32.09-84.34Q30.91-84.34 30.91-84.17L30.91-84.17L30.24-83.66L30.24-83.66Q29.40-82.49 29.06-80.89L29.06-80.89L29.06-80.89Q28.73-79.30 28.39-77.45L28.39-77.45L28.39-77.45Q28.06-76.78 27.72-76.36L27.72-76.36L27.72-76.36Q27.38-75.94 27.05-75.60L27.05-75.60L25.70-73.58L25.70-73.58Q25.37-71.90 24.70-70.22L24.70-70.22L24.70-70.22Q24.36-69.38 24.02-68.46L24.02-68.46L24.02-68.46Q23.69-67.54 23.52-66.53L23.52-66.53L23.52-66.53Q22.68-65.69 21.84-64.01L21.84-64.01L21.84-64.01Q18.98-61.49 18.82-56.95L18.82-56.95L18.82-56.95Q18.65-55.94 17.98-54.77L17.98-54.77L17.98-54.77Q17.64-54.10 17.56-53.51L17.56-53.51L17.56-53.51Q17.47-52.92 17.30-52.42L17.30-52.42L17.30-52.42Q16.97-50.74 16.72-50.15L16.72-50.15L16.72-50.15Q16.46-49.56 16.13-49.22L16.13-49.22L16.13-49.22Q16.30-48.55 16.46-47.96L16.46-47.96L16.46-47.96Q16.63-47.38 16.63-46.70L16.63-46.70L16.63-46.70Q16.80-45.86 16.97-45.28L16.97-45.28L16.97-45.28Q17.14-44.69 17.30-44.18L17.30-44.18L17.30-44.18Q17.14-43.51 17.30-42.67L17.30-42.67L17.30-42.67Q17.47-42.34 17.47-41.92L17.47-41.92L17.47-41.92Q17.47-41.50 17.47-41.16L17.47-41.16L17.47-41.16Q17.47-40.15 17.30-39.65L17.30-39.65L17.30-39.65Q16.97-37.80 17.64-36.29L17.64-36.29L17.64-36.29Q18.65-34.61 18.82-31.92L18.82-31.92L18.82-31.92Q18.82-28.73 20.33-27.22L20.33-27.22L20.33-27.22Q21.17-26.38 21.50-25.62L21.50-25.62L21.50-25.62Q21.84-24.86 22.18-24.02L22.18-24.02L22.18-24.02Q22.34-23.18 23.02-22.51L23.02-22.51L23.02-22.51Q24.70-21.34 25.28-20.92L25.28-20.92L25.28-20.92Q25.87-20.50 26.21-20.50L26.21-20.50L26.21-20.50Q26.88-20.16 27.05-19.74L27.05-19.74L27.05-19.74Q27.22-19.32 27.38-18.98L27.38-18.98L27.38-18.98Q29.23-17.14 30.74-16.63L30.74-16.63L33.77-15.12L33.77-15.12Q35.11-15.12 36.12-14.11L36.12-14.11L36.12-14.11Q37.30-14.11 38.22-14.28L38.22-14.28L38.22-14.28Q39.14-14.45 40.32-14.78L40.32-14.78L40.32-14.78Q41.16-15.12 42.08-15.46L42.08-15.46L42.08-15.46Q43.01-15.79 43.85-16.13L43.85-16.13L45.19-16.63L45.19-16.63Q46.20-17.47 46.79-17.64L46.79-17.64L46.79-17.64Q47.38-17.81 47.88-17.98L47.88-17.98L47.88-17.98Q49.06-18.31 49.06-19.32L49.06-19.32L49.06-19.32Q50.40-20.16 50.65-20.50L50.65-20.50L50.65-20.50Q50.90-20.83 50.90-21.17L50.90-21.17L51.58-23.35L51.58-23.35Q51.91-24.70 52.25-25.37L52.25-25.37L52.25-25.37Q52.58-26.04 52.92-26.38L52.92-26.38L52.92-26.38Q53.76-28.73 53.59-29.40L53.59-29.40L53.59-29.40Q53.42-30.07 53.76-31.92L53.76-31.92L53.26-33.26L53.26-33.26Q53.09-34.10 52.33-34.19L52.33-34.19L52.33-34.19Q51.58-34.27 50.90-34.27L50.90-34.27L50.90-34.27Q50.06-34.27 49.73-34.10L49.73-34.10L49.73-34.10Q49.22-33.94 48.64-33.77L48.64-33.77L48.64-33.77Q48.05-33.60 47.54-33.26L47.54-33.26L47.54-33.26Q46.54-32.76 45.36-32.76L45.36-32.76L45.36-32.76Q44.18-32.93 43.26-32.93L43.26-32.93L43.26-32.93Q42.34-32.93 41.50-33.10L41.50-33.10L41.50-33.10Q39.98-33.26 39.48-34.44L39.48-34.44L39.48-34.44Q38.30-34.61 37.97-35.28L37.97-35.28L37.97-35.28Q37.63-35.78 36.79-36.12L36.79-36.12L36.79-36.12Q36.62-36.79 36.79-37.30L36.79-37.30L36.79-37.30Q36.46-38.14 36.54-38.64L36.54-38.64L36.54-38.64Q36.62-39.14 36.62-39.48L36.62-39.48L36.62-39.48Q36.62-40.49 37.30-41.16L37.30-41.16L37.30-41.16Q37.63-43.34 38.81-44.94L38.81-44.94L38.81-44.94Q39.98-46.54 41.50-48.05L41.50-48.05L41.50-48.05Q43.85-48.38 44.69-48.89L44.69-48.89L44.69-48.89Q45.02-49.06 45.53-49.06L45.53-49.06L45.53-49.06Q46.03-49.06 46.54-49.22L46.54-49.22L46.54-49.22Q47.54-50.23 48.38-50.23L48.38-50.23L48.38-50.23Q49.39-50.23 50.57-48.72L50.57-48.72L54.10-46.54L54.10-46.54Q55.10-46.03 55.78-45.36L55.78-45.36L55.78-45.36Q56.78-45.36 57.79-45.36L57.79-45.36L57.79-45.36Q58.80-45.36 59.64-45.53L59.64-45.53L59.64-45.53Q60.31-45.70 61.49-45.70L61.49-45.70L61.49-45.70Q62.66-45.70 63.17-45.53L63.17-45.53L63.17-45.53Q63.67-45.86 64.68-45.86L64.68-45.86L64.68-45.86Q65.52-45.86 66.02-45.53L66.02-45.53L66.02-45.53Q66.53-45.36 67.37-45.36L67.37-45.36L67.37-45.36Q68.21-45.36 68.71-45.70L68.71-45.70L68.71-45.70Q69.55-45.53 70.06-45.44L70.06-45.44L70.06-45.44Q70.56-45.36 70.90-45.36L70.90-45.36L70.90-45.36Q72.74-45.53 73.42-45.70L73.42-45.70L73.42-45.70Q74.09-45.86 74.42-46.03L74.42-46.03L74.42-46.03Q74.59-46.03 74.68-46.12L74.68-46.12L74.68-46.12Q74.76-46.20 74.93-46.20L74.93-46.20L74.93-46.20Q75.94-46.20 76.94-45.19L76.94-45.19L76.94-45.19Q77.28-45.02 77.62-44.86L77.62-44.86L77.62-44.86Q77.95-44.69 78.46-44.52L78.46-44.52L78.46-44.52Q80.30-43.85 80.81-42.17L80.81-42.17L80.81-42.17Q83.33-41.33 83.83-40.99L83.83-40.99L85.18-39.65L85.18-39.65Q85.18-38.81 85.51-37.97L85.51-37.97L85.51-37.97Q85.85-37.13 86.18-36.12L86.18-36.12L86.18-36.12Q86.69-34.27 86.18-32.59L86.18-32.59L86.18-32.59Q85.18-30.74 84.84-30.32L84.84-30.32L84.84-30.32Q84.50-29.90 84.34-29.74L84.34-29.74L84.34-29.74Q83.66-29.40 83.16-29.06L83.16-29.06L83.16-29.06Q82.66-28.73 82.32-28.22L82.32-28.22L81.31-27.55L81.31-27.55Q80.81-27.22 80.39-27.05L80.39-27.05L80.39-27.05Q79.97-26.88 79.46-26.54L79.46-26.54L79.46-26.54Q79.30-26.38 78.62-26.38L78.62-26.38L78.62-26.38Q78.12-26.38 77.78-26.54L77.78-26.54L77.78-26.54Q76.61-26.38 76.61-26.54L76.61-26.54L76.61-26.54Q75.77-27.38 75.26-28.06L75.26-28.06L75.26-28.06Q74.76-28.73 73.92-28.73L73.92-28.73L73.42-28.73L73.42-28.73Q72.41-28.39 72.16-27.38L72.16-27.38L72.16-27.38Q71.90-26.38 71.57-25.03L71.57-25.03L71.57-25.03Q71.23-23.69 70.98-22.26L70.98-22.26L70.98-22.26Q70.73-20.83 69.89-20.33L69.89-20.33L69.38-18.65L69.38-18.65Q69.05-18.31 68.96-17.89L68.96-17.89L68.96-17.89Q68.88-17.47 68.71-17.14L68.71-17.14L68.71-17.14Q68.88-16.13 68.04-15.29L68.04-15.29L68.04-15.29Q66.70-12.26 64.85-10.92L64.85-10.92L64.85-10.92Q63.67-10.25 62.92-9.41L62.92-9.41L62.92-9.41Q62.16-8.57 61.32-7.56L61.32-7.56L61.32-7.56Q59.30-5.71 58.30-4.70L58.30-4.70L58.30-4.70Q57.29-3.70 55.94-3.19L55.94-3.19L55.94-3.19Q55.27-1.85 53.93-2.02ZM49.22-24.86L47.21-22.34L47.21-22.34Q45.53-22.34 45.02-23.35L45.02-23.35L45.02-23.35Q44.69-24.02 44.35-24.53L44.35-24.53L44.35-24.53Q44.02-25.03 43.68-25.37L43.68-25.37L43.68-25.37Q43.85-27.05 43.34-28.22L43.34-28.22L43.34-28.22Q43.68-28.56 44.02-28.98L44.02-28.98L44.02-28.98Q44.35-29.40 44.86-29.40L44.86-29.40L44.86-29.40Q45.19-29.40 45.36-29.23L45.36-29.23L45.36-29.23Q46.20-29.40 47.88-30.07L47.88-30.07L47.88-30.07Q48.89-30.07 49.56-29.06L49.56-29.06L49.56-29.06Q50.40-25.87 49.22-24.86L49.22-24.86ZM78.96-23.02L78.96-23.02L80.30-22.68L80.30-22.68Q81.65-22.34 81.90-20.50L81.90-20.50L81.90-20.50Q82.15-18.65 80.81-17.81L80.81-17.81L80.81-17.81Q79.97-16.63 79.63-16.30L79.63-16.30L79.63-16.30Q79.30-15.96 78.46-15.62L78.46-15.62L78.46-15.62Q77.45-15.79 76.69-15.96L76.69-15.96L76.69-15.96Q75.94-16.13 75.10-16.63L75.10-16.63L75.10-16.63Q75.10-17.47 74.76-17.81L74.76-17.81L75.10-21L75.10-21Q75.60-22.34 76.61-22.68L76.61-22.68L76.61-22.68Q77.62-23.02 78.96-23.02ZM73.92-67.54L73.92-67.54L72.41-67.03L72.41-67.03Q72.07-66.86 71.74-66.86L71.74-66.86L71.74-66.86Q70.22-66.86 70.56-68.21L70.56-68.21L70.56-68.21Q70.56-69.05 70.06-69.22L70.06-69.22L70.06-69.22Q70.39-70.39 71.32-71.06L71.32-71.06L71.32-71.06Q72.24-71.74 73.42-71.74L73.42-71.74L73.42-71.74Q73.92-71.74 74.26-71.57L74.26-71.57L74.26-71.57Q74.93-70.73 74.93-70.06L74.93-70.06L74.93-70.06Q74.93-69.72 74.84-69.38L74.84-69.38L74.84-69.38Q74.76-69.05 74.76-68.88L74.76-68.88L74.76-68.88Q74.42-68.54 74.26-68.21L74.26-68.21L74.26-68.21Q74.09-67.87 73.92-67.54ZM72.91-87.36L72.91-87.36L72.91-87.36Q72.41-87.36 72.07-87.86L72.07-87.86L72.07-87.86Q71.74-88.37 71.40-88.87L71.40-88.87L71.40-88.87Q70.39-91.22 70.22-92.15L70.22-92.15L70.22-92.15Q70.06-93.07 70.39-93.58L70.39-93.58L70.39-93.58Q70.73-93.91 70.81-94.25L70.81-94.25L70.81-94.25Q70.90-94.58 71.06-94.92L71.06-94.92L71.06-94.92Q71.90-95.42 72.58-95.42L72.58-95.42L72.58-95.42Q73.92-95.42 75.10-94.25L75.10-94.25L75.10-94.25Q75.43-93.91 76.19-92.32L76.19-92.32L76.19-92.32Q76.94-90.72 76.61-90.22L76.61-90.22L76.61-90.22Q75.77-89.38 75.26-88.87L75.26-88.87L75.26-88.87Q74.76-88.37 74.59-88.03L74.59-88.03L74.59-88.03Q74.26-87.70 72.91-87.36ZM94.92-44.69L94.92-44.69L94.92-44.69Q95.09-44.18 95.17-43.76L95.17-43.76L95.17-43.76Q95.26-43.34 95.59-43.01L95.59-43.01L95.59-43.01Q96.10-42.34 95.76-41.16L95.76-41.16L95.76-41.16Q94.25-39.31 92.90-39.31L92.90-39.31L92.90-39.31Q88.54-41.33 89.88-44.52L89.88-44.52L89.88-44.52Q90.22-44.86 90.97-45.28L90.97-45.28L90.97-45.28Q91.73-45.70 92.57-45.70L92.57-45.70L92.57-45.70Q93.07-45.70 93.24-45.53L93.24-45.53L93.24-45.53Q93.91-45.02 94.92-44.69ZM151.03-1.85L150.02-0.17L149.35 0.17L149.35 0.17Q149.18 1.01 148.18 1.34L148.18 1.34L148.18 1.34Q147.17 1.68 146.66 2.35L146.66 2.35L146.66 2.35Q145.66 2.86 144.65 2.86L144.65 2.86L144.65 2.86Q143.30 2.86 142.63 3.02L142.63 3.02L142.63 3.02Q141.12 2.69 140.95 2.35L140.95 2.35L140.95 2.35Q139.61 2.35 138.94 1.68L138.94 1.68L138.94 1.68Q138.26 1.01 137.09 0.50L137.09 0.50L137.09 0.50Q136.58-0.50 136.42-0.76L136.42-0.76L136.42-0.76Q136.25-1.01 135.91-1.01L135.91-1.01L135.58-1.01L135.58-1.01Q135.74-1.34 135.07-2.02L135.07-2.02L135.07-2.02Q134.40-2.69 134.23-3.02L134.23-3.02L134.23-3.02Q133.39-3.53 133.22-3.86L133.22-3.86L133.22-3.86Q132.55-4.20 132.05-4.20L132.05-4.20L132.05-4.20Q131.21-4.20 130.54-3.36L130.54-3.36L130.54-3.36Q129.86-2.35 129.19-2.18L129.19-2.18L128.52-1.68L128.52-1.68Q127.34-1.18 126.76-0.67L126.76-0.67L126.76-0.67Q126.17-0.17 125.66 0.17L125.66 0.17L125.66 0.17Q125.16 0 124.15 0L124.15 0L124.15 0Q122.64 0 121.46 0.67L121.46 0.67L121.46 0.67Q120.29 1.18 119.45 1.34L119.45 1.34L119.45 1.34Q118.61 1.51 117.26 1.51L117.26 1.51L117.26 1.51Q116.42 1.68 115.92 1.68L115.92 1.68L115.92 1.68Q115.42 1.68 115.08 1.85L115.08 1.85L115.08 1.85Q114.58 2.02 113.57 2.02L113.57 2.02L113.57 2.02Q112.73 2.02 112.22 1.93L112.22 1.93L112.22 1.93Q111.72 1.85 111.05 1.68L111.05 1.68L111.05 1.68Q109.70 1.68 109.20 1.51L109.20 1.51L107.35 1.51L107.35 1.51Q106.68 1.18 106.51 1.18L106.51 1.18L106.51 1.18Q106.34 1.18 106.26 1.26L106.26 1.26L106.26 1.26Q106.18 1.34 106.01 1.34L106.01 1.34L106.01 1.34Q105.67 1.68 104.66 1.68L104.66 1.68L104.66 1.68Q103.15 0.84 102.48 0.84L102.48 0.84L102.48 0.84Q101.64 0.84 100.63-0.17L100.63-0.17L100.63-0.17Q100.13-0.67 99.29-0.67L99.29-0.67L99.29-0.67Q98.11-1.51 97.61-2.35L97.61-2.35L97.61-2.35Q97.44-2.69 97.27-3.02L97.27-3.02L97.27-3.02Q97.10-3.36 97.10-3.70L97.10-3.70L97.10-3.70Q96.26-5.04 96.43-5.54L96.43-5.54L96.43-5.54Q95.76-7.22 95.09-7.73L95.09-7.73L95.09-7.73Q94.42-8.40 94.08-9.24L94.08-9.24L94.08-9.24Q93.74-10.08 93.74-10.58L93.74-10.58L93.74-10.58Q93.58-10.92 93.58-11.26L93.58-11.26L93.58-11.26Q93.58-11.59 93.41-11.93L93.41-11.93L93.41-11.93Q93.07-13.27 92.90-14.87L92.90-14.87L92.90-14.87Q92.74-16.46 92.74-17.81L92.74-17.81L92.74-17.81Q92.90-18.98 92.74-19.49L92.74-19.49L92.74-19.49Q92.90-23.52 93.91-25.87L93.91-25.87L94.25-27.72L94.25-27.72Q94.25-28.73 94.92-29.23L94.92-29.23L94.92-29.23Q95.09-31.08 95.93-31.92L95.93-31.92L95.93-31.92Q96.26-32.42 96.94-33.77L96.94-33.77L96.94-33.77Q97.94-34.78 97.94-34.94L97.94-34.94L97.94-35.11L97.94-35.11Q98.95-35.78 98.95-35.95L98.95-35.95L98.95-35.95Q100.63-37.80 101.98-38.64L101.98-38.64L101.98-38.64Q103.32-39.48 105-40.32L105-40.32L105-40.32Q110.54-42.50 114.07-42.50L114.07-42.50L114.07-42.50Q115.25-42.50 115.75-42.34L115.75-42.34L115.75-42.34Q116.42-43.01 118.10-43.01L118.10-43.01L118.10-43.01Q119.62-43.01 120.29-42.50L120.29-42.50L120.29-42.50Q121.46-42.17 121.88-42L121.88-42L121.88-42Q122.30-41.83 122.81-41.50L122.81-41.50L122.81-41.50Q123.14-41.16 123.40-41.16L123.40-41.16L123.40-41.16Q123.65-41.16 123.98-40.99L123.98-40.99L123.98-40.99Q125.50-40.82 125.83-40.49L125.83-40.49L126.34-40.15L126.34-40.15Q127.68-39.82 128.52-39.82L128.52-39.82L128.52-39.82Q130.70-39.82 131.54-41.16L131.54-41.16L131.54-41.16Q131.71-41.33 131.96-41.66L131.96-41.66L131.96-41.66Q132.22-42 132.22-42.34L132.22-42.34L132.22-42.34Q132.22-43.01 132.55-43.68L132.55-43.68L132.55-43.68Q132.72-44.02 132.55-44.69L132.55-44.69L132.55-44.69Q132.38-45.36 132.22-45.86L132.22-45.86L132.22-45.86Q132.22-49.73 131.96-53.59L131.96-53.59L131.96-53.59Q131.71-57.46 130.87-61.32L130.87-61.32L130.87-61.32Q130.54-62.33 130.37-63.25L130.37-63.25L130.37-63.25Q130.20-64.18 129.36-64.68L129.36-64.68L129.36-64.68Q127.85-69.22 124.66-71.74L124.66-71.74L124.66-71.74Q123.65-71.74 123.14-72.41L123.14-72.41L121.80-72.91L121.80-72.91Q120.62-73.42 119.45-73.42L119.45-73.42L119.45-73.42Q119.11-73.42 118.94-73.33L118.94-73.33L118.94-73.33Q118.78-73.25 118.44-73.25L118.44-73.25L118.44-73.25Q117.10-72.91 115.92-72.91L115.92-72.91L115.92-72.91Q115.75-73.08 115.25-73.08L115.25-73.08L115.25-73.08Q114.91-73.08 114.74-72.91L114.74-72.91L113.40-72.58L113.40-72.58Q113.06-72.74 112.22-72.74L112.22-72.74L112.22-72.74Q111.55-72.74 110.04-71.99L110.04-71.99L110.04-71.99Q108.53-71.23 108.19-70.90L108.19-70.90L108.19-70.90Q107.69-70.56 107.18-70.48L107.18-70.48L107.18-70.48Q106.68-70.39 106.34-70.22L106.34-70.22L106.34-70.22Q105.84-69.89 105.42-69.72L105.42-69.72L105.42-69.72Q105-69.55 104.66-69.05L104.66-69.05L104.66-69.05Q104.50-68.88 103.66-68.21L103.66-68.21L103.66-68.21Q102.48-67.54 101.64-65.86L101.64-65.86L101.64-65.86Q100.97-65.02 100.21-63.76L100.21-63.76L100.21-63.76Q99.46-62.50 99.46-61.99L99.46-61.99L99.79-60.48L99.79-60.48Q100.46-59.98 100.63-59.14L100.63-59.14L100.63-59.14Q101.47-57.29 101.81-57.29L101.81-57.29L102.14-56.95L103.99-56.95L103.99-56.95Q105-56.95 105.67-57.29L105.67-57.29L105.67-57.29Q106.34-57.62 107.18-57.62L107.18-57.62L107.18-57.62Q107.52-58.63 107.18-59.98L107.18-59.98L107.18-59.98Q107.02-60.65 107.35-61.82L107.35-61.82L107.35-61.82Q108.36-63.67 109.54-64.85L109.54-64.85L109.54-64.85Q110.71-66.02 112.73-66.53L112.73-66.53L112.73-66.53Q113.06-66.70 113.90-67.20L113.90-67.20L113.90-67.20Q114.58-67.54 115.08-67.54L115.08-67.54L115.08-67.54Q116.26-66.86 116.76-66.86L116.76-66.86L117.10-66.86L117.10-66.86Q119.45-66.53 120.54-65.94L120.54-65.94L120.54-65.94Q121.63-65.35 122.47-64.01L122.47-64.01L122.47-64.01Q122.81-63.00 122.81-62.50L122.81-62.50L122.81-62.50Q122.81-61.66 123.65-61.15L123.65-61.15L123.65-61.15Q123.65-59.81 123.73-58.97L123.73-58.97L123.73-58.97Q123.82-58.13 124.15-57.46L124.15-57.46L124.15-57.46Q124.49-56.78 124.07-56.03L124.07-56.03L124.07-56.03Q123.65-55.27 123.31-54.43L123.31-54.43L123.31-54.43Q122.47-53.42 122.30-53.26L122.30-53.26L122.30-53.26Q122.14-52.42 121.55-51.83L121.55-51.83L121.55-51.83Q120.96-51.24 120.46-50.57L120.46-50.57L120.46-50.57Q120.12-50.23 119.95-49.81L119.95-49.81L119.95-49.81Q119.78-49.39 118.94-49.06L118.94-49.06L116.26-48.05L116.26-48.05Q114.74-47.21 114.16-46.96L114.16-46.96L114.16-46.96Q113.57-46.70 113.23-46.70L113.23-46.70L113.23-46.70Q112.73-46.70 111.72-46.37L111.72-46.37L111.72-46.37Q109.87-45.53 109.54-45.86L109.54-45.86L109.54-45.86Q107.86-45.86 107.35-45.70L107.35-45.70L107.35-45.70Q106.85-45.53 106.18-45.53L106.18-45.53L105.67-45.53L103.99-45.86L103.99-45.86Q102.48-45.86 101.64-47.04L101.64-47.04L101.64-47.04Q100.97-48.05 98.95-48.05L98.95-48.05L98.95-48.05Q97.44-49.06 96.43-49.56L96.43-49.56L96.43-49.56Q95.26-49.90 95.09-50.74L95.09-50.74L95.09-50.74Q94.08-51.41 93.58-51.83L93.58-51.83L93.58-51.83Q93.07-52.25 92.74-52.58L92.74-52.58L92.74-52.58Q92.40-52.92 92.15-53.17L92.15-53.17L92.15-53.17Q91.90-53.42 91.56-53.59L91.56-53.59L91.56-53.59Q91.22-54.43 90.97-55.02L90.97-55.02L90.97-55.02Q90.72-55.61 90.38-56.28L90.38-56.28L90.38-56.28Q89.54-57.62 89.46-58.97L89.46-58.97L89.46-58.97Q89.38-60.31 89.38-61.66L89.38-61.66L89.38-61.66Q89.38-63.00 89.71-64.43L89.71-64.43L89.71-64.43Q90.05-65.86 90.38-66.70L90.38-66.70L90.38-66.70Q90.55-67.03 90.72-67.45L90.72-67.45L90.72-67.45Q90.89-67.87 91.06-68.38L91.06-68.38L91.06-68.38Q91.90-70.39 92.32-70.98L92.32-70.98L92.32-70.98Q92.74-71.57 93.07-71.90L93.07-71.90L93.07-71.90Q94.42-74.42 95.34-75.01L95.34-75.01L95.34-75.01Q96.26-75.60 97.44-76.27L97.44-76.27L97.44-76.27Q98.62-76.94 99.46-77.36L99.46-77.36L99.46-77.36Q100.30-77.78 101.14-78.12L101.14-78.12L101.14-78.12Q102.14-78.46 104.16-78.79L104.16-78.79L104.16-78.79Q105.50-78.96 106.76-79.13L106.76-79.13L106.76-79.13Q108.02-79.30 109.37-80.14L109.37-80.14L109.37-80.14Q113.23-80.14 116.76-80.64L116.76-80.64L116.76-80.64Q117.10-80.47 117.94-80.81L117.94-80.81L120.96-80.81L121.80-80.81L121.80-80.81Q123.14-80.81 123.98-80.64L123.98-80.64L123.98-80.64Q126.67-79.80 128.27-79.46L128.27-79.46L128.27-79.46Q129.86-79.13 130.87-78.29L130.87-78.29L130.87-78.29Q135.24-77.62 137.09-73.92L137.09-73.92L137.09-73.92Q137.09-73.25 137.26-72.91L137.26-72.91L137.26-72.91Q137.42-72.58 137.59-72.24L137.59-72.24L137.59-72.24Q137.93-71.23 137.93-70.90L137.93-70.90L137.93-70.90Q138.43-70.06 138.94-69.55L138.94-69.55L138.94-69.55Q139.44-69.05 139.94-68.21L139.94-68.21L139.94-68.21Q140.45-67.37 140.70-66.70L140.70-66.70L140.70-66.70Q140.95-66.02 141.29-65.35L141.29-65.35L141.29-65.35Q141.62-64.68 141.88-64.09L141.88-64.09L141.88-64.09Q142.13-63.50 142.46-62.83L142.46-62.83L142.46-62.83Q142.80-62.16 142.97-61.74L142.97-61.74L142.97-61.74Q143.14-61.32 143.47-60.48L143.47-60.48L143.98-59.14L143.98-59.14Q143.98-58.30 144.48-57.46L144.48-57.46L144.48-57.46Q144.65-57.12 144.65-56.78L144.65-56.78L144.65-56.78Q144.65-56.45 144.82-56.11L144.82-56.11L144.82-56.11Q144.48-54.94 144.98-54.10L144.98-54.10L144.98-54.10Q145.32-52.92 144.98-52.42L144.98-52.42L144.98-52.42Q145.66-51.24 145.66-49.90L145.66-49.90L145.66-46.87L145.66-46.87Q145.66-45.36 145.74-44.77L145.74-44.77L145.74-44.77Q145.82-44.18 145.99-43.85L145.99-43.85L145.99-43.85Q146.33-43.18 145.99-42.34L145.99-42.34L145.99-42.34Q145.66-41.16 145.99-41.16L145.99-41.16L145.99-41.16Q146.16-38.98 145.91-37.97L145.91-37.97L145.91-37.97Q145.66-36.96 145.66-36.12L145.66-36.12L145.66-36.12Q145.66-35.28 145.49-34.61L145.49-34.61L145.49-34.61Q145.32-33.94 145.15-33.43L145.15-33.43L145.15-33.43Q145.32-30.41 144.82-29.40L144.82-29.40L144.82-29.40Q144.31-25.37 143.81-21.84L143.81-21.84L143.81-21.84Q144.14-20.50 144.06-19.49L144.06-19.49L144.06-19.49Q143.98-18.48 143.81-16.80L143.81-16.80L143.81-16.80Q143.98-14.95 144.14-13.61L144.14-13.61L144.14-13.61Q144.31-12.26 145.15-11.26L145.15-11.26L148.34-10.58L148.34-10.58Q149.35-10.25 149.35-9.58L149.35-9.58L149.35-9.58Q149.69-8.90 149.94-8.48L149.94-8.48L149.94-8.48Q150.19-8.06 150.53-7.73L150.53-7.73L150.53-7.73Q151.37-6.55 151.37-5.88L151.37-5.88L151.37-5.88Q151.37-5.54 151.28-3.86L151.28-3.86L151.28-3.86Q151.20-2.18 151.03-1.85L151.03-1.85ZM108.19-28.22L107.52-26.88L107.52-26.88Q107.18-25.54 106.85-24.95L106.85-24.95L106.85-24.95Q106.51-24.36 106.51-24.02L106.51-24.02L106.51-24.02Q106.51-22.18 106.43-21.42L106.43-21.42L106.43-21.42Q106.34-20.66 106.18-19.82L106.18-19.82L106.18-19.82Q105.50-17.98 106.01-16.63L106.01-16.63L106.01-16.63Q106.18-15.79 106.43-14.87L106.43-14.87L106.43-14.87Q106.68-13.94 107.02-13.61L107.02-13.61L107.02-13.61Q107.18-11.93 108.36-11.00L108.36-11.00L108.36-11.00Q109.54-10.08 111.05-9.41L111.05-9.41L111.05-9.41Q111.72-9.24 112.90-9.24L112.90-9.24L112.90-9.24Q114.24-9.24 115.25-9.74L115.25-9.74L115.25-9.74Q116.59-10.42 118.10-10.42L118.10-10.42L118.10-10.42Q119.45-11.42 120.79-11.42L120.79-11.42L120.79-11.42Q122.64-12.60 122.47-12.60L122.47-12.60L122.47-12.60Q123.65-13.10 125.83-14.20L125.83-14.20L125.83-14.20Q128.02-15.29 128.52-16.30L128.52-16.30L128.52-16.30Q129.53-17.47 129.53-20.16L129.53-20.16L129.53-20.16Q129.53-21 129.86-21.34L129.86-21.34L129.86-21.34Q130.20-21.67 130.12-21.92L130.12-21.92L130.12-21.92Q130.03-22.18 130.03-22.51L130.03-22.51L130.03-22.51Q129.36-23.35 129.36-24.19L129.36-24.19L129.36-24.19Q129.53-24.70 129.44-25.12L129.44-25.12L129.44-25.12Q129.36-25.54 129.36-25.70L129.36-25.70L128.52-28.06L128.52-28.06Q128.35-28.39 128.27-28.73L128.27-28.73L128.27-28.73Q128.18-29.06 128.18-29.57L128.18-29.57L128.18-29.57Q127.68-30.41 127.26-31.00L127.26-31.00L127.26-31.00Q126.84-31.58 126.50-31.58L126.50-31.58L126.50-31.58Q126-31.58 124.99-31.92L124.99-31.92L124.99-31.92Q124.66-31.75 123.82-31.75L123.82-31.75L123.82-31.75Q122.98-31.75 122.64-32.09L122.64-32.09L122.64-32.09Q122.30-32.42 121.46-32.42L121.46-32.42L121.46-32.42Q120.62-32.42 120.29-32.09L120.29-32.09L120.29-32.09Q118.94-32.09 117.68-31.75L117.68-31.75L117.68-31.75Q116.42-31.42 115.08-30.91L115.08-30.91L115.08-30.91Q112.73-29.57 110.38-28.90L110.38-28.90L110.38-28.90Q109.54-28.73 109.12-28.64L109.12-28.64L109.12-28.64Q108.70-28.56 108.19-28.22L108.19-28.22ZM148.34-75.43L148.34-75.43L148.34-75.43Q150.70-74.76 151.54-73.08L151.54-73.08L151.54-73.08Q152.04-72.07 152.21-70.98L152.21-70.98L152.21-70.98Q152.38-69.89 151.54-69.05L151.54-69.05L151.54-69.05Q150.19-67.87 149.77-67.62L149.77-67.62L149.77-67.62Q149.35-67.37 149.02-67.37L149.02-67.37L149.02-67.37Q148.51-67.37 147.84-67.70L147.84-67.70L145.32-68.71L145.32-68.71Q143.64-70.39 143.64-73.08L143.64-73.08L143.64-73.08Q143.98-73.42 144.23-73.75L144.23-73.75L144.23-73.75Q144.48-74.09 144.82-74.42L144.82-74.42L144.82-74.42Q145.32-74.93 145.99-74.93L145.99-74.93L146.50-74.93L146.50-74.93Q147-75.43 148.34-75.43ZM91.39-1.18L91.39-1.18L92.23-1.18L92.23-1.18Q93.41-1.18 94.16-0.59L94.16-0.59L94.16-0.59Q94.92 0 94.58 1.18L94.58 1.18L94.58 1.18Q94.58 1.68 94.50 2.18L94.50 2.18L94.50 2.18Q94.42 2.69 94.08 2.69L94.08 2.69L94.08 2.69Q93.41 2.69 92.57 3.53L92.57 3.53L92.57 3.53Q90.89 3.19 90.47 1.51L90.47 1.51L90.47 1.51Q90.05-0.17 91.39-1.18ZM150.36-26.88L150.36-26.88L150.36-26.88Q152.38-26.71 152.80-25.79L152.80-25.79L152.80-25.79Q153.22-24.86 152.88-24.02L152.88-24.02L152.88-24.02Q152.04-23.35 151.37-23.35L151.37-23.35L151.37-23.35Q150.36-23.69 150.19-24.86L150.19-24.86L150.19-24.86Q150.02-26.04 150.36-26.88ZM149.69-13.10L149.69-13.10L149.35-13.61L149.35-13.61Q148.34-14.95 148.51-15.79L148.51-15.79L148.51-15.79Q148.68-16.46 148.68-18.14L148.68-18.14L148.68-18.14Q149.52-19.15 149.86-19.15L149.86-19.15L149.86-19.15Q154.06-19.66 154.22-18.14L154.22-18.14L154.22-18.14Q154.73-16.80 154.56-16.30L154.56-16.30L154.56-16.30Q154.22-15.96 154.22-15.62L154.22-15.62L154.22-15.62Q154.22-15.29 154.06-14.95L154.06-14.95L154.06-14.95Q153.22-14.11 151.87-13.61L151.87-13.61L151.87-13.61Q150.53-13.10 149.69-13.10ZM156.74-3.02L157.58-3.53L158.09-3.53L158.09-3.53Q158.76-3.53 158.93-3.02L158.93-3.02L158.93-3.02Q159.43-2.18 159.94-2.18L159.94-2.18L159.94-2.18Q160.10-0.84 159.77 0L159.77 0L159.77 0Q159.43 0.84 158.93 1.68L158.93 1.68L158.93 1.68Q158.76 1.85 158.42 1.85L158.42 1.85L158.42 1.85Q158.09 1.85 157.75 1.68L157.75 1.68L156.41 1.18L156.41 1.18Q155.23-0.84 155.40-1.18L155.40-1.18L155.40-1.18Q155.90-2.52 156.74-3.02L156.74-3.02ZM162.12-58.63L162.12-58.63L162.12-58.63Q161.78-60.98 161.62-62.24L161.62-62.24L161.62-62.24Q161.45-63.50 161.28-64.34L161.28-64.34L161.28-64.34Q160.94-65.86 162.12-67.03L162.12-67.03L162.12-67.03Q163.13-66.86 163.80-66.86L163.80-66.86L163.80-66.86Q164.47-66.86 164.81-66.86L164.81-66.86L164.81-66.86Q165.65-66.86 165.82-65.86L165.82-65.86L165.82-65.86Q166.99-64.18 166.40-61.82L166.40-61.82L166.40-61.82Q165.82-59.47 164.47-58.63L164.47-58.63L163.97-58.63L163.97-58.63Q163.46-58.63 163.30-58.46L163.30-58.46L163.30-58.46Q162.96-58.30 162.96-58.30L162.96-58.30L162.96-58.30Q162.79-58.30 162.12-58.63ZM183.12-103.99L183.12-103.99L183.12-103.99Q183.62-102.14 184.04-99.62L184.04-99.62L184.04-99.62Q184.46-97.10 183.46-95.09L183.46-95.09L183.46-95.09Q183.46-94.25 183.46-93.66L183.46-93.66L183.46-93.66Q183.46-93.07 183.29-92.06L183.29-92.06L183.29-92.06Q181.94-90.72 180.85-89.21L180.85-89.21L180.85-89.21Q179.76-87.70 180.10-85.34L180.10-85.34L180.10-85.34Q179.59-83.66 179.76-81.98L179.76-81.98L179.76-81.98Q180.10-79.97 179.76-78.46L179.76-78.46L179.76-78.46Q179.76-76.10 179.93-73.92L179.93-73.92L179.93-73.92Q180.10-71.74 180.60-69.89L180.60-69.89L180.60-69.89Q180.94-68.04 181.10-66.19L181.10-66.19L181.10-66.19Q181.27-64.34 181.10-62.16L181.10-62.16L181.10-62.16Q181.27-60.65 181.36-59.72L181.36-59.72L181.36-59.72Q181.44-58.80 182.28-58.30L182.28-58.30L182.28-58.30Q182.11-57.62 182.28-56.62L182.28-56.62L182.28-56.62Q182.62-55.61 181.78-55.10L181.78-55.10L182.28-53.76L182.28-53.76Q182.28-52.92 182.62-52.58L182.62-52.58L182.62-52.58Q182.62-51.58 182.45-50.82L182.45-50.82L182.45-50.82Q182.28-50.06 181.94-49.22L181.94-49.22L181.94-49.22Q181.61-48.38 181.61-47.80L181.61-47.80L181.61-47.80Q181.61-47.21 181.61-46.54L181.61-46.54L181.61-45.70L181.61-45.70Q181.61-44.18 181.61-43.68L181.61-43.68L181.61-43.68Q181.61-43.18 181.78-43.01L181.78-43.01L181.78-43.01Q182.11-41.16 181.94-41.16L181.94-41.16L181.94-41.16Q181.78-40.15 182.20-39.40L182.20-39.40L182.20-39.40Q182.62-38.64 182.95-38.14L182.95-38.14L182.95-38.14Q182.95-36.79 183.04-35.28L183.04-35.28L183.04-35.28Q183.12-33.77 183.79-32.59L183.79-32.59L183.79-32.59Q184.63-30.58 184.46-29.74L184.46-29.74L184.46-29.74Q184.30-28.73 184.80-27.89L184.80-27.89L184.80-27.89Q184.46-27.22 184.63-25.87L184.63-25.87L184.63-25.87Q184.63-25.20 184.55-24.61L184.55-24.61L184.55-24.61Q184.46-24.02 184.46-23.52L184.46-23.52L184.46-23.52Q184.30-23.18 184.21-22.85L184.21-22.85L184.21-22.85Q184.13-22.51 184.13-21.67L184.13-21.67L184.13-21.67Q184.13-20.66 183.96-20.16L183.96-20.16L183.96-20.16Q183.62-19.15 183.62-18.48L183.62-18.48L183.62-18.48Q183.96-17.47 183.96-17.05L183.96-17.05L183.96-17.05Q183.96-16.63 183.96-16.30L183.96-16.30L183.96-16.30Q183.62-13.94 184.13-12.60L184.13-12.60L184.13-12.60Q184.63-10.92 184.30-9.24L184.30-9.24L184.30-9.24Q184.63-8.40 184.72-7.56L184.72-7.56L184.72-7.56Q184.80-6.72 184.46-5.88L184.46-5.88L184.46-5.88Q184.97-4.54 185.14-3.44L185.14-3.44L185.14-3.44Q185.30-2.35 184.80-1.18L184.80-1.18L184.80-1.18Q183.46 0.67 182.36 1.18L182.36 1.18L182.36 1.18Q181.27 1.68 180.43 1.68L180.43 1.68L180.43 1.68Q177.91 2.69 176.57 3.36L176.57 3.36L176.57 3.36Q174.89 4.03 173.04 4.03L173.04 4.03L173.04 4.03Q171.70 3.70 170.86 3.70L170.86 3.70L170.86 3.70Q169.85 3.86 169.51 3.86L169.51 3.86L169.51 3.86Q169.18 3.86 168.84 3.86L168.84 3.86L168.84 3.86Q168.34 3.86 167.66 3.53L167.66 3.53L167.66 3.53Q167.33 3.36 167.24 3.19L167.24 3.19L167.24 3.19Q167.16 3.02 166.82 2.69L166.82 2.69L166.82 2.69Q165.82 2.35 165.48 2.35L165.48 2.35L165.48 2.35Q163.97 0.67 163.38 0L163.38 0L163.38 0Q162.79-0.67 162.96-1.18L162.96-1.18L162.96-1.18Q162.96-2.18 162.29-2.18L162.29-2.18L162.29-2.18Q161.78-5.71 162.54-9.74L162.54-9.74L162.54-9.74Q163.30-13.78 165.48-16.46L165.48-16.46L165.48-16.46Q166.32-20.83 166.82-23.86L166.82-23.86L166.82-23.86Q167.33-26.88 167.33-30.07L167.33-30.07L167.33-31.92L167.33-31.92Q167.16-32.93 167.33-33.60L167.33-33.60L167.33-33.60Q167.83-35.78 167.66-36.46L167.66-36.46L167.66-36.46Q167.50-37.13 167.66-37.80L167.66-37.80L167.66-37.80Q168.34-39.82 168.34-41.66L168.34-41.66L168.34-43.68L168.34-43.68Q168.34-44.69 168.67-45.02L168.67-45.02L168.67-45.02Q168.67-46.70 168.59-47.29L168.59-47.29L168.59-47.29Q168.50-47.88 168.67-48.22L168.67-48.22L168.67-48.89L168.67-48.89Q168.50-50.23 168.59-51.74L168.59-51.74L168.59-51.74Q168.67-53.26 169.18-54.60L169.18-54.60L169.18-54.60Q169.18-55.78 170.02-57.46L170.02-57.46L170.02-57.46Q170.18-58.30 170.27-58.97L170.27-58.97L170.27-58.97Q170.35-59.64 170.18-60.48L170.18-60.48L170.18-62.16L170.18-62.16Q169.85-64.34 169.68-65.02L169.68-65.02L169.68-65.02Q169.51-65.69 169.18-66.02L169.18-66.02L169.18-66.02Q168.84-66.36 168.59-66.78L168.59-66.78L168.59-66.78Q168.34-67.20 168.34-67.87L168.34-67.87L168.34-67.87Q167.66-68.38 167.50-69.55L167.50-69.55L167.50-69.55Q167.33-70.73 167.33-71.57L167.33-71.57L167.33-73.58L167.33-73.58Q167.66-74.59 167.92-75.18L167.92-75.18L167.92-75.18Q168.17-75.77 168.17-76.10L168.17-76.10L168.17-76.10Q168.17-77.11 168.08-77.53L168.08-77.53L168.08-77.53Q168-77.95 168.17-78.29L168.17-78.29L168.17-78.29Q168.17-78.96 167.50-79.46L167.50-79.46L167.50-79.46Q167.16-81.31 167.08-81.82L167.08-81.82L167.08-81.82Q166.99-82.32 166.66-83.16L166.66-83.16L166.66-83.16Q165.48-85.01 165.48-86.35L165.48-86.35L165.48-86.35Q165.65-86.69 165.65-87.28L165.65-87.28L165.65-87.28Q165.65-87.86 165.65-88.37L165.65-88.37L165.65-88.37Q165.65-89.38 165.98-90.05L165.98-90.05L165.98-90.05Q165.82-91.06 165.73-91.98L165.73-91.98L165.73-91.98Q165.65-92.90 165.82-93.91L165.82-93.91L165.82-93.91Q165.82-94.92 165.73-95.84L165.73-95.84L165.73-95.84Q165.65-96.77 165.48-97.78L165.48-97.78L165.48-97.78Q165.48-98.62 165.31-98.95L165.31-98.95L165.48-100.97L165.48-100.97Q165.48-102.82 166.82-104.16L166.82-104.16L166.82-104.16Q167.83-105.17 168-105.17L168-105.17L168-105.17Q168.50-105.84 169.18-105.84L169.18-105.84L169.18-105.84Q169.68-105.84 170.18-106.51L170.18-106.51L170.18-106.51Q170.86-106.85 171.19-106.85L171.19-106.85L171.19-106.85Q171.53-106.85 171.61-106.76L171.61-106.76L171.61-106.76Q171.70-106.68 172.03-106.68L172.03-106.68L172.03-106.68Q172.54-106.34 172.96-106.18L172.96-106.18L172.96-106.18Q173.38-106.01 173.88-106.01L173.88-106.01L173.88-106.01Q174.22-106.01 174.89-106.34L174.89-106.34L174.89-106.34Q176.23-106.68 176.74-106.51L176.74-106.51L176.74-106.51Q177.24-106.34 177.74-106.01L177.74-106.01L177.74-106.01Q178.25-105.67 178.67-105.50L178.67-105.50L178.67-105.50Q179.09-105.34 179.76-105.34L179.76-105.34L179.76-105.34Q180.10-104.50 181.02-104.24L181.02-104.24L181.02-104.24Q181.94-103.99 183.12-103.99ZM183.29-109.70L183.29-109.70L183.29-109.70Q185.64-111.22 186.48-111.22L186.48-111.22L186.48-111.22Q186.82-111.22 187.49-110.88L187.49-110.88L187.49-110.88Q187.66-110.71 187.99-110.46L187.99-110.46L187.99-110.46Q188.33-110.21 188.83-109.70L188.83-109.70L188.83-109.70Q190.51-108.19 189.67-106.85L189.67-106.85L189.67-106.85Q189.34-106.51 189-106.18L189-106.18L189-106.18Q188.66-105.84 188.16-105.50L188.16-105.50L188.16-105.50Q187.49-105 186.14-105L186.14-105L186.14-105Q185.64-105.67 185.22-106.01L185.22-106.01L185.22-106.01Q184.80-106.34 184.46-106.68L184.46-106.68L184.46-106.68Q184.13-107.02 183.71-107.52L183.71-107.52L183.71-107.52Q183.29-108.02 183.12-108.53L183.12-108.53L183.12-108.53Q182.95-108.70 183.29-109.70ZM180.43 6.05L180.43 6.05L180.43 6.05Q181.10 7.22 180.60 7.90L180.60 7.90L180.60 7.90Q180.10 8.74 180.10 9.74L180.10 9.74L180.10 9.74Q179.59 9.91 179.17 10.16L179.17 10.16L179.17 10.16Q178.75 10.42 178.42 10.75L178.42 10.75L178.42 10.75Q177.24 11.59 176.40 11.59L176.40 11.59L176.40 11.59Q175.90 12.10 175.39 12.10L175.39 12.10L175.39 12.10Q174.89 12.10 174.30 11.76L174.30 11.76L174.30 11.76Q173.71 11.42 173.21 11.09L173.21 11.09L173.21 11.09Q173.54 8.23 175.06 7.06L175.06 7.06L175.06 7.06Q176.57 5.88 178.75 5.88L178.75 5.88L178.75 5.88Q179.09 5.88 179.59 5.96L179.59 5.96L179.59 5.96Q180.10 6.05 180.43 6.05ZM196.06-48.38L196.06-48.38L196.90-48.89L196.90-48.89Q198.24-49.73 198.74-49.73L198.74-49.73L198.74-49.73Q199.25-49.73 199.58-49.56L199.58-49.56L199.58-49.56Q201.26-48.72 202.10-46.70L202.10-46.70L202.10-46.70Q202.94-44.69 201.60-43.34L201.60-43.34L201.60-43.34Q200.93-42.67 199.75-42.67L199.75-42.67L199.75-42.67Q199.25-42.67 198.58-43.01L198.58-43.01L198.58-43.01Q197.90-43.51 197.06-45.19L197.06-45.19L197.06-45.19Q196.73-45.53 196.22-46.54L196.22-46.54L196.22-46.54Q195.72-47.54 196.06-48.38ZM199.08-55.27L199.08-55.27L197.90-55.61L197.90-55.61Q196.90-56.78 196.56-58.46L196.56-58.46L196.56-58.46Q196.39-59.81 195.72-60.48L195.72-60.48L195.72-60.48Q195.72-61.32 195.72-61.91L195.72-61.91L195.72-61.91Q195.72-62.50 196.06-63.34L196.06-63.34L196.06-63.34Q196.39-64.01 196.48-64.68L196.48-64.68L196.48-64.68Q196.56-65.35 196.73-66.02L196.73-66.02L197.74-66.70L197.74-66.70Q198.41-67.03 198.74-67.37L198.74-67.37L198.74-67.37Q199.58-68.54 200.59-69.05L200.59-69.05L201.43-69.89L201.43-69.89Q202.10-70.73 203.11-70.73L203.11-70.73L207.98-70.73L207.98-70.73Q208.32-70.90 208.99-70.90L208.99-70.90L208.99-70.90Q210.17-70.90 210.84-70.39L210.84-70.39L210.84-70.39Q213.02-70.06 213.95-69.72L213.95-69.72L213.95-69.72Q214.87-69.38 215.21-68.88L215.21-68.88L215.21-68.88Q215.88-67.70 217.22-67.03L217.22-67.03L217.22-67.03Q217.56-66.36 217.90-65.35L217.90-65.35L217.90-65.35Q218.06-65.02 218.15-64.60L218.15-64.60L218.15-64.60Q218.23-64.18 218.57-63.84L218.57-63.84L218.57-63.84Q218.90-61.82 218.99-59.89L218.99-59.89L218.99-59.89Q219.07-57.96 218.57-55.94L218.57-55.94L218.57-55.94Q218.57-54.10 218.90-52.75L218.90-52.75L218.90-52.75Q219.24-51.41 218.90-50.40L218.90-50.40L218.90-50.40Q218.40-49.39 218.40-48.72L218.40-48.72L218.40-48.72Q218.57-46.70 218.40-46.03L218.40-46.03L218.40-46.03Q218.23-45.53 218.40-44.77L218.40-44.77L218.40-44.77Q218.57-44.02 219.41-43.51L219.41-43.51L219.41-43.51Q220.08-43.01 220.42-41.66L220.42-41.66L220.42-40.82L220.42-40.82Q220.58-38.98 220.58-37.80L220.58-37.80L220.58-37.80Q220.58-36.62 220.75-35.45L220.75-35.45L220.75-35.45Q220.92-33.10 220.42-30.58L220.42-30.58L220.42-30.58Q220.42-30.07 220.50-29.48L220.50-29.48L220.50-29.48Q220.58-28.90 220.42-28.39L220.42-28.39L220.42-28.39Q220.08-27.05 220.25-26.38L220.25-26.38L220.42-25.20L220.42-25.20Q220.92-22.85 220.75-22.18L220.75-22.18L220.75-22.18Q220.42-20.83 220.92-19.99L220.92-19.99L220.92-19.99Q220.92-18.48 221.42-17.47L221.42-17.47L221.42-17.47Q221.42-15.29 222.10-13.27L222.10-13.27L222.60-11.59L222.60-11.59Q222.60-9.74 222.77-9.41L222.77-9.41L223.10-8.06L223.10-8.06Q223.10-6.38 222.60-4.96L222.60-4.96L222.60-4.96Q222.10-3.53 221.26-2.18L221.26-2.18L221.26-2.18Q220.42-1.68 219.58-0.34L219.58-0.34L217.56 1.01L217.56 1.01Q217.06 1.34 216.47 1.68L216.47 1.68L216.47 1.68Q215.88 2.02 215.38 2.35L215.38 2.35L215.38 2.35Q213.70 2.18 213.19 0.67L213.19 0.67L213.19 0.67Q212.86 0.67 212.77 0.59L212.77 0.59L212.77 0.59Q212.69 0.50 212.35 0.50L212.35 0.50L212.35 0.50Q212.02 0.50 211.34 0.84L211.34 0.84L211.34 0.84Q210.34 1.51 210 1.51L210 1.51L209.50 1.51L208.32 1.51L208.32 1.51Q207.48 1.51 206.81 1.85L206.81 1.85L206.81 1.85Q205.13 1.18 204.29-0.34L204.29-0.34L204.29-0.34Q203.95-1.18 203.62-1.76L203.62-1.76L203.62-1.76Q203.28-2.35 203.28-2.69L203.28-2.69L203.28-2.69Q202.94-3.02 202.78-3.19L202.78-3.19L202.78-3.19Q202.61-3.36 202.44-3.70L202.44-3.70L202.44-3.70Q202.27-5.21 202.10-5.21L202.10-5.21L202.10-5.21Q202.10-8.06 202.44-9.07L202.44-9.07L202.44-9.07Q202.78-10.08 203.11-10.92L203.11-10.92L203.11-10.92Q204.29-13.94 204.29-14.45L204.29-14.45L204.29-14.45Q205.30-18.48 206.30-20.33L206.30-20.33L206.30-20.33Q207.14-22.18 207.14-25.37L207.14-25.37L207.14-25.37Q207.65-27.05 207.14-28.56L207.14-28.56L207.14-28.56Q206.64-30.07 207.14-31.58L207.14-31.58L207.14-31.58Q206.30-33.60 206.22-34.69L206.22-34.69L206.22-34.69Q206.14-35.78 206.30-36.62L206.30-36.62L206.30-36.62Q206.30-37.30 206.22-37.63L206.22-37.63L206.22-37.63Q206.14-37.97 206.14-38.30L206.14-38.30L206.14-38.30Q206.47-40.66 206.56-41.41L206.56-41.41L206.56-41.41Q206.64-42.17 206.47-42.67L206.47-42.67L206.47-42.67Q206.14-43.85 206.30-44.69L206.30-44.69L206.30-44.69Q205.80-46.54 205.97-47.88L205.97-47.88L205.97-47.88Q205.97-49.56 205.80-50.40L205.80-50.40L205.80-50.40Q204.12-52.42 203.11-53.09L203.11-53.09L203.11-53.09Q202.10-53.76 201.60-54.10L201.60-54.10L201.60-54.10Q200.93-54.43 200.34-54.68L200.34-54.68L200.34-54.68Q199.75-54.94 199.08-55.27ZM197.23-80.30L197.23-80.30L197.23-80.30Q197.23-82.32 197.06-82.66L197.06-82.66L197.06-82.66Q196.06-84.84 196.90-86.35L196.90-86.35L196.90-86.35Q197.23-87.02 197.57-88.03L197.57-88.03L197.57-88.03Q198.91-89.04 199.75-90.38L199.75-90.38L199.75-90.38Q200.76-91.73 202.27-92.48L202.27-92.48L202.27-92.48Q203.78-93.24 204.62-93.58L204.62-93.58L204.96-93.58L204.96-93.58Q205.63-93.58 205.97-93.41L205.97-93.41L205.97-93.41Q206.64-93.74 207.14-93.74L207.14-93.74L208.82-93.74L208.82-93.74Q209.16-93.74 209.83-93.41L209.83-93.41L209.83-93.41Q211.34-91.56 212.86-90.72L212.86-90.72L212.86-90.72Q213.70-90.05 214.20-88.87L214.20-88.87L214.20-88.87Q214.20-88.03 214.87-87.02L214.87-87.02L214.87-87.02Q215.38-84.50 214.62-82.40L214.62-82.40L214.62-82.40Q213.86-80.30 211.34-79.97L211.34-79.97L211.34-79.97Q209.83-79.30 209.83-79.13L209.83-79.13L209.50-78.79L209.50-78.79Q208.66-78.46 208.15-78.20L208.15-78.20L208.15-78.20Q207.65-77.95 206.98-77.62L206.98-77.62L206.98-77.62Q205.97-77.11 204.29-77.11L204.29-77.11L204.29-77.11Q202.94-76.78 202.52-76.69L202.52-76.69L202.52-76.69Q202.10-76.61 201.94-76.61L201.94-76.61L201.94-76.61Q200.59-76.61 200.09-77.28L200.09-77.28L200.09-77.28Q198.74-78.29 198.07-78.46L198.07-78.46L198.07-78.46Q197.23-79.30 197.23-80.30ZM220.75-93.41L220.75-93.41L219.74-92.57L219.74-92.57Q219.24-92.40 218.23-92.40L218.23-92.40L218.23-92.40Q215.88-92.40 215.54-94.42L215.54-94.42L215.54-94.42Q215.38-95.26 216.05-96.60L216.05-96.60L216.05-96.60Q216.72-97.94 217.56-98.28L217.56-98.28L218.06-98.28L218.06-98.28Q218.57-98.28 218.74-98.45L218.74-98.45L218.74-98.45Q218.90-98.62 219.58-98.62L219.58-98.62L219.91-98.62L219.91-98.62Q221.76-97.10 221.68-95.68L221.68-95.68L221.68-95.68Q221.59-94.25 220.75-93.41ZM225.96 4.20L224.11 4.87L223.10 4.54L223.10 4.54Q221.93 3.86 222.10 1.51L222.10 1.51L222.10 1.51Q222.43 0.67 222.85 0.42L222.85 0.42L222.85 0.42Q223.27 0.17 224.11-0.34L224.11-0.34L224.11-0.34Q225.12-0.84 226.13-0.84L226.13-0.84L226.13-0.84Q227.98-0.84 228.31 0.34L228.31 0.34L228.31 0.34Q228.31 1.34 227.81 2.02L227.81 2.02L227.81 2.02Q227.64 2.35 226.97 3.19L226.97 3.19L226.97 3.19Q226.30 4.03 225.96 4.20L225.96 4.20ZM259.39-41.83L259.39-41.83L258.72-42.67L258.72-42.67Q259.39-46.87 263.59-46.87L263.59-46.87L264.26-46.20L264.26-46.20Q265.27-44.52 264.77-43.51L264.77-43.51L264.77-43.51Q264.10-42.17 263.93-41.66L263.93-41.66L263.93-41.66Q262.75-40.49 261.07-40.49L261.07-40.49L261.07-40.49Q259.39-40.49 259.39-41.83ZM249.31-59.98L249.31-59.98L249.31-59.98Q248.64-58.80 248.98-57.20L248.98-57.20L248.98-57.20Q249.31-55.61 249.82-54.43L249.82-54.43L251.33-55.78L251.33-55.78Q252-56.28 252.50-56.95L252.50-56.95L252.50-56.95Q253.01-58.13 253.34-58.63L253.34-58.63L253.34-58.63Q253.68-59.14 254.52-59.47L254.52-59.47L254.52-59.47Q255.19-60.48 256.20-61.15L256.20-61.15L256.20-61.15Q256.54-62.33 257.88-62.58L257.88-62.58L257.88-62.58Q259.22-62.83 260.40-63.00L260.40-63.00L260.40-63.00Q262.25-63.84 263.00-64.18L263.00-64.18L263.00-64.18Q263.76-64.51 264.10-64.85L264.10-64.85L264.10-64.85Q264.43-65.02 265.10-65.02L265.10-65.02L265.10-65.02Q265.78-65.02 266.11-64.85L266.11-64.85L266.11-64.85Q267.46-65.52 268.63-65.69L268.63-65.69L268.63-65.69Q269.47-65.69 270.06-65.77L270.06-65.77L270.06-65.77Q270.65-65.86 271.32-66.02L271.32-66.02L274.34-66.02L274.34-66.02Q274.85-66.02 275.44-66.02L275.44-66.02L275.44-66.02Q276.02-66.02 276.53-66.19L276.53-66.19L276.53-66.19Q279.05-65.86 279.22-65.69L279.22-65.69L279.22-65.69Q280.22-65.69 281.40-65.52L281.40-65.52L281.40-65.52Q282.58-65.35 283.42-64.51L283.42-64.51L284.09-64.51L284.09-64.51Q284.93-64.51 285.60-64.18L285.60-64.18L285.60-64.18Q286.61-63.17 287.95-63.17L287.95-63.17L287.95-63.17Q288.96-61.49 289.97-61.32L289.97-61.32L289.97-61.32Q290.81-60.98 291.06-60.23L291.06-60.23L291.06-60.23Q291.31-59.47 291.31-58.63L291.31-58.63L291.31-58.63Q291.14-57.79 291.65-56.95L291.65-56.95L291.65-56.95Q291.48-56.45 291.82-55.44L291.82-55.44L291.82-55.44Q291.98-54.94 292.07-54.52L292.07-54.52L292.07-54.52Q292.15-54.10 292.15-53.59L292.15-53.59L292.15-53.59Q292.82-51.74 292.82-51.07L292.82-51.07L292.82-51.07Q292.99-49.06 293.83-48.22L293.83-48.22L293.83-48.22Q294.50-47.21 294.67-46.20L294.67-46.20L294.67-46.20Q294.17-44.18 294.17-43.34L294.17-43.34L294.17-43.34Q294.17-42.17 294-41.83L294-41.83L294-41.83Q293.16-40.15 293.16-38.30L293.16-38.30L293.16-38.30Q293.16-36.46 292.32-35.11L292.32-35.11L292.32-35.11Q292.32-34.44 292.24-33.94L292.24-33.94L292.24-33.94Q292.15-33.43 292.15-32.93L292.15-32.93L292.15-32.93Q291.65-32.09 291.73-31.33L291.73-31.33L291.73-31.33Q291.82-30.58 291.98-29.90L291.98-29.90L291.98-29.90Q291.98-29.06 291.48-28.73L291.48-28.73L291.48-28.73Q291.31-27.38 291.23-26.88L291.23-26.88L291.23-26.88Q291.14-26.38 290.81-25.87L290.81-25.87L290.81-25.87Q291.82-23.35 290.81-21.17L290.81-21.17L290.81-21.17Q290.47-20.50 290.30-19.99L290.30-19.99L290.30-19.99Q290.14-19.49 289.80-18.98L289.80-18.98L289.80-18.98Q289.30-17.81 288.88-16.38L288.88-16.38L288.88-16.38Q288.46-14.95 288.12-13.27L288.12-13.27L288.12-13.27Q287.95-11.76 288.46-9.74L288.46-9.74L288.46-9.74Q289.13-9.07 290.30-9.07L290.30-9.07L290.30-9.07Q292.15-7.90 292.99-7.90L292.99-7.90L294.84-7.90L294.84-7.90Q296.18-7.90 297.02-7.06L297.02-7.06L297.02-7.06Q297.86-6.22 297.86-5.38L297.86-5.38L297.86-5.38Q297.53-3.19 298.03-1.51L298.03-1.51L298.03-1.51Q298.37-0.67 298.54 0.76L298.54 0.76L298.54 0.76Q298.70 2.18 298.20 3.19L298.20 3.19L298.20 3.19Q297.86 3.70 297.61 4.20L297.61 4.20L297.61 4.20Q297.36 4.70 297.02 5.38L297.02 5.38L297.02 5.38Q296.52 5.38 296.18 6.22L296.18 6.22L296.18 6.22Q295.18 7.56 294.76 8.15L294.76 8.15L294.76 8.15Q294.34 8.74 294.17 9.07L294.17 9.07L294.17 9.07Q294 9.58 293.16 9.91L293.16 9.91L293.16 9.91Q292.49 10.08 291.90 10.16L291.90 10.16L291.90 10.16Q291.31 10.25 290.47 10.25L290.47 10.25L290.47 10.25Q289.30 10.25 288.29 9.74L288.29 9.74L288.29 9.74Q287.45 9.58 286.86 9.58L286.86 9.58L286.86 9.58Q286.27 9.58 285.77 9.41L285.77 9.41L285.77 9.41Q284.59 9.41 284.42 8.74L284.42 8.74L284.42 8.74Q281.90 8.23 281.40 7.06L281.40 7.06L281.40 7.06Q279.72 6.22 278.38 5.54L278.38 5.54L278.38 5.54Q277.03 4.87 276.53 3.36L276.53 3.36L276.53 3.36Q276.19 3.02 275.77 2.69L275.77 2.69L275.77 2.69Q275.35 2.35 275.35 1.51L275.35 1.51L275.35 1.51Q275.02 0.34 275.02-0.42L275.02-0.42L275.02-0.42Q275.02-1.18 274.85-1.51L274.85-1.51L274.85-1.51Q274.34-2.86 274.43-4.03L274.43-4.03L274.43-4.03Q274.51-5.21 274.85-6.05L274.85-6.05L274.85-7.73L274.85-7.73Q274.51-8.40 275.35-8.74L275.35-8.74L275.35-8.74Q275.69-10.42 275.60-12.26L275.60-12.26L275.60-12.26Q275.52-14.11 274.51-15.62L274.51-15.62L274.51-15.62Q274.85-16.46 274.68-16.80L274.68-16.80L274.68-16.80Q274.01-18.98 274.68-20.33L274.68-20.33L274.68-20.33Q275.02-21 275.10-21.59L275.10-21.59L275.10-21.59Q275.18-22.18 275.35-22.68L275.35-22.68L275.35-22.68Q275.69-23.69 275.69-24.19L275.69-24.19L275.69-24.19Q275.52-24.70 276.02-25.54L276.02-25.54L276.02-25.54Q276.02-27.72 276.70-28.56L276.70-28.56L276.70-28.56Q277.87-30.41 277.87-30.58L277.87-30.58L277.87-30.58Q278.54-31.42 278.71-32.09L278.71-32.09L278.71-32.09Q278.88-32.76 279.05-33.60L279.05-33.60L279.05-33.60Q279.05-34.44 279.38-36.12L279.38-36.12L279.38-36.12Q279.55-36.46 279.55-37.63L279.55-37.63L279.55-37.63Q279.89-40.49 278.88-41.66L278.88-41.66L278.88-41.66Q278.21-42.67 277.87-44.18L277.87-44.18L273.67-48.05L273.67-48.05Q272.33-49.22 271.57-49.73L271.57-49.73L271.57-49.73Q270.82-50.23 269.98-50.74L269.98-50.74L269.98-50.74Q269.14-51.24 268.46-51.66L268.46-51.66L268.46-51.66Q267.79-52.08 266.95-52.75L266.95-52.75L265.61-52.75L265.61-52.75Q265.27-52.75 264.94-52.75L264.94-52.75L264.94-52.75Q264.60-52.75 264.26-52.58L264.26-52.58L264.26-52.58Q262.92-52.08 262.16-51.83L262.16-51.83L262.16-51.83Q261.41-51.58 260.74-50.90L260.74-50.90L260.74-50.90Q260.23-50.40 259.56-50.06L259.56-50.06L259.56-50.06Q258.38-49.06 258.38-49.06L258.38-49.06L258.38-49.06Q258.05-48.55 257.71-47.88L257.71-47.88L257.71-47.88Q257.54-47.54 257.29-47.21L257.29-47.21L257.29-47.21Q257.04-46.87 256.70-46.54L256.70-46.54L256.20-45.19L256.20-45.19Q256.03-44.86 256.03-44.52L256.03-44.52L256.03-44.52Q256.03-44.18 255.86-43.85L255.86-43.85L255.86-43.85Q255.02-42.67 255.02-42L255.02-42L255.02-42Q253.68-39.31 253.68-38.14L253.68-38.14L253.68-38.14Q253.68-36.96 253.01-35.62L253.01-35.62L253.01-35.62Q253.01-33.77 253.68-32.93L253.68-32.93L253.68-32.93Q254.52-32.09 254.35-30.74L254.35-30.74L254.35-30.74Q254.18-29.40 253.68-27.89L253.68-27.89L253.68-27.89Q253.01-26.54 253.85-25.03L253.85-25.03L253.85-25.03Q253.51-24.02 253.68-23.52L253.68-23.52L253.68-23.52Q253.68-22.68 253.18-21.84L253.18-21.84L253.18-21.84Q253.85-20.50 253.18-19.15L253.18-19.15L253.18-19.15Q253.01-18.65 253.09-18.23L253.09-18.23L253.09-18.23Q253.18-17.81 253.18-17.47L253.18-17.47L253.18-17.47Q254.18-16.46 254.18-14.28L254.18-14.28L254.18-14.28Q254.18-13.27 255.02-12.77L255.02-12.77L255.02-12.77Q255.36-11.93 255.53-11.26L255.53-11.26L255.53-11.26Q255.70-10.58 256.03-9.74L256.03-9.74L256.03-9.74Q256.87-7.06 255.19-5.38L255.19-5.38L255.19-5.38Q254.35-3.36 253.18-2.10L253.18-2.10L253.18-2.10Q252-0.84 250.66 0.50L250.66 0.50L250.66 0.50Q249.65 0.84 249.40 1.09L249.40 1.09L249.40 1.09Q249.14 1.34 248.81 1.51L248.81 1.51L248.81 1.51Q247.46 1.51 247.13 1.85L247.13 1.85L247.13 1.85Q246.46 2.52 245.45 2.52L245.45 2.52L245.45 2.52Q241.75 1.68 238.64-0.76L238.64-0.76L238.64-0.76Q235.54-3.19 235.54-7.39L235.54-7.39L235.03-9.91L235.03-9.91Q235.37-10.58 235.70-11.59L235.70-11.59L235.70-11.59Q235.70-12.26 236.04-12.94L236.04-12.94L236.04-12.94Q236.88-15.12 236.88-16.13L236.88-16.13L236.88-16.13Q236.71-16.97 237.05-17.98L237.05-17.98L237.05-17.98Q237.38-19.15 237.30-19.74L237.30-19.74L237.30-19.74Q237.22-20.33 237.05-20.83L237.05-20.83L237.05-20.83Q237.72-23.52 237.38-26.04L237.38-26.04L237.38-26.04Q237.05-28.56 236.71-30.58L236.71-30.58L236.71-30.58Q237.22-31.42 236.88-32.26L236.88-32.26L236.88-32.26Q236.54-33.26 236.71-33.60L236.71-33.60L236.71-33.60Q236.04-34.94 236.38-36.79L236.38-36.79L236.38-36.79Q236.71-38.47 236.04-39.65L236.04-39.65L236.04-39.65Q236.04-40.99 236.12-41.75L236.12-41.75L236.12-41.75Q236.21-42.50 236.54-43.34L236.54-43.34L236.54-43.34Q237.22-44.86 237.55-47.21L237.55-47.21L237.55-47.21Q237.55-48.55 237.72-49.98L237.72-49.98L237.72-49.98Q237.89-51.41 238.06-51.58L238.06-51.58L238.06-51.58Q238.06-52.58 238.14-53.17L238.14-53.17L238.14-53.17Q238.22-53.76 238.39-54.43L238.39-54.43L238.39-55.27L238.39-55.27Q237.55-57.29 237.55-58.13L237.55-58.13L237.05-59.81L237.05-59.81Q234.36-61.99 233.86-65.86L233.86-65.86L233.86-65.86Q233.69-67.20 233.77-68.04L233.77-68.04L233.77-68.04Q233.86-68.88 234.70-69.72L234.70-69.72L234.70-69.72Q235.54-70.06 235.96-70.39L235.96-70.39L235.96-70.39Q236.38-70.73 236.54-70.73L236.54-70.73L236.54-70.73Q237.55-71.57 238.14-72.16L238.14-72.16L238.14-72.16Q238.73-72.74 239.06-72.74L239.06-72.74L239.06-72.74Q239.74-72.74 240.24-73.25L240.24-73.25L241.42-73.25L241.42-73.25Q242.76-73.08 243.43-73.25L243.43-73.25L243.43-73.25Q243.60-73.25 244.61-72.91L244.61-72.91L244.61-72.91Q246.46-71.74 246.46-71.74L246.46-71.74L246.46-71.74Q247.30-71.74 247.97-70.90L247.97-70.90L248.64-70.39L248.64-70.39Q249.14-68.88 248.98-68.88L248.98-68.88L248.98-68.88Q249.48-68.21 249.65-67.03L249.65-67.03L249.65-67.03Q249.98-65.69 250.32-65.18L250.32-65.18L250.32-65.18Q250.32-64.34 250.07-63.76L250.07-63.76L250.07-63.76Q249.82-63.17 249.48-62.50L249.48-62.50L249.48-62.50Q248.98-60.98 249.31-59.98ZM254.52-66.53L254.52-66.53L254.18-68.21L254.18-68.21Q254.35-68.88 255.36-68.88L255.36-68.88L255.36-68.88Q256.70-68.88 257.04-67.87L257.04-67.87L257.04-67.87Q257.04-67.37 256.54-66.78L256.54-66.78L256.54-66.78Q256.03-66.19 255.36-66.19L255.36-66.19L255.36-66.19Q255.19-66.19 254.52-66.53ZM273.17-43.85L273.17-43.85L273.17-43.85Q274.51-43.01 273.84-41.33L273.84-41.33L273.84-41.33Q273.50-40.49 272.92-39.98L272.92-39.98L272.92-39.98Q272.33-39.48 271.82-39.65L271.82-39.65L271.82-39.65Q271.15-42.17 271.57-43.01L271.57-43.01L271.57-43.01Q271.99-43.85 273.17-43.85ZM297.70-11.59L297.70-11.59L297.19-11.59L297.19-11.59Q296.02-11.59 295.51-12.10L295.51-12.10L295.51-12.10Q293.66-12.60 293.66-13.61L293.66-13.61L293.66-13.61Q293.66-14.95 294.34-16.13L294.34-16.13L294.34-16.13Q295.01-17.30 295.85-17.64L295.85-17.64L295.85-17.64Q296.18-17.81 296.86-17.81L296.86-17.81L296.86-17.81Q298.20-17.81 299.04-16.46L299.04-16.46L299.04-16.46Q299.88-15.12 299.71-13.27L299.71-13.27L299.71-13.27Q299.04-12.94 298.54-12.43L298.54-12.43L298.54-12.43Q298.03-11.93 297.70-11.59ZM258.72-78.96L259.39-79.13L259.39-79.13Q260.06-78.96 260.65-78.71L260.65-78.71L260.65-78.71Q261.24-78.46 261.91-78.12L261.91-78.12L261.91-78.12Q262.42-74.76 261.66-73.92L261.66-73.92L261.66-73.92Q260.90-73.08 259.90-72.91L259.90-72.91L259.06-72.91L259.06-72.91Q258.22-72.91 257.46-73.08L257.46-73.08L257.46-73.08Q256.70-73.25 256.20-74.09L256.20-74.09L256.20-74.09Q256.03-74.59 256.03-75.26L256.03-75.26L256.03-75.26Q255.70-76.10 256.70-77.62L256.70-77.62L256.70-77.62Q257.54-78.79 258.72-78.96L258.72-78.96ZM311.98-44.69L311.98-44.69L311.98-44.69Q312.14-44.18 312.23-43.76L312.23-43.76L312.23-43.76Q312.31-43.34 312.65-43.01L312.65-43.01L312.65-43.01Q313.15-42.34 312.82-41.16L312.82-41.16L312.82-41.16Q311.30-39.31 309.96-39.31L309.96-39.31L309.96-39.31Q305.59-41.33 306.94-44.52L306.94-44.52L306.94-44.52Q307.27-44.86 308.03-45.28L308.03-45.28L308.03-45.28Q308.78-45.70 309.62-45.70L309.62-45.70L309.62-45.70Q310.13-45.70 310.30-45.53L310.30-45.53L310.30-45.53Q310.97-45.02 311.98-44.69ZM368.09-1.85L367.08-0.17L366.41 0.17L366.41 0.17Q366.24 1.01 365.23 1.34L365.23 1.34L365.23 1.34Q364.22 1.68 363.72 2.35L363.72 2.35L363.72 2.35Q362.71 2.86 361.70 2.86L361.70 2.86L361.70 2.86Q360.36 2.86 359.69 3.02L359.69 3.02L359.69 3.02Q358.18 2.69 358.01 2.35L358.01 2.35L358.01 2.35Q356.66 2.35 355.99 1.68L355.99 1.68L355.99 1.68Q355.32 1.01 354.14 0.50L354.14 0.50L354.14 0.50Q353.64-0.50 353.47-0.76L353.47-0.76L353.47-0.76Q353.30-1.01 352.97-1.01L352.97-1.01L352.63-1.01L352.63-1.01Q352.80-1.34 352.13-2.02L352.13-2.02L352.13-2.02Q351.46-2.69 351.29-3.02L351.29-3.02L351.29-3.02Q350.45-3.53 350.28-3.86L350.28-3.86L350.28-3.86Q349.61-4.20 349.10-4.20L349.10-4.20L349.10-4.20Q348.26-4.20 347.59-3.36L347.59-3.36L347.59-3.36Q346.92-2.35 346.25-2.18L346.25-2.18L345.58-1.68L345.58-1.68Q344.40-1.18 343.81-0.67L343.81-0.67L343.81-0.67Q343.22-0.17 342.72 0.17L342.72 0.17L342.72 0.17Q342.22 0 341.21 0L341.21 0L341.21 0Q339.70 0 338.52 0.67L338.52 0.67L338.52 0.67Q337.34 1.18 336.50 1.34L336.50 1.34L336.50 1.34Q335.66 1.51 334.32 1.51L334.32 1.51L334.32 1.51Q333.48 1.68 332.98 1.68L332.98 1.68L332.98 1.68Q332.47 1.68 332.14 1.85L332.14 1.85L332.14 1.85Q331.63 2.02 330.62 2.02L330.62 2.02L330.62 2.02Q329.78 2.02 329.28 1.93L329.28 1.93L329.28 1.93Q328.78 1.85 328.10 1.68L328.10 1.68L328.10 1.68Q326.76 1.68 326.26 1.51L326.26 1.51L324.41 1.51L324.41 1.51Q323.74 1.18 323.57 1.18L323.57 1.18L323.57 1.18Q323.40 1.18 323.32 1.26L323.32 1.26L323.32 1.26Q323.23 1.34 323.06 1.34L323.06 1.34L323.06 1.34Q322.73 1.68 321.72 1.68L321.72 1.68L321.72 1.68Q320.21 0.84 319.54 0.84L319.54 0.84L319.54 0.84Q318.70 0.84 317.69-0.17L317.69-0.17L317.69-0.17Q317.18-0.67 316.34-0.67L316.34-0.67L316.34-0.67Q315.17-1.51 314.66-2.35L314.66-2.35L314.66-2.35Q314.50-2.69 314.33-3.02L314.33-3.02L314.33-3.02Q314.16-3.36 314.16-3.70L314.16-3.70L314.16-3.70Q313.32-5.04 313.49-5.54L313.49-5.54L313.49-5.54Q312.82-7.22 312.14-7.73L312.14-7.73L312.14-7.73Q311.47-8.40 311.14-9.24L311.14-9.24L311.14-9.24Q310.80-10.08 310.80-10.58L310.80-10.58L310.80-10.58Q310.63-10.92 310.63-11.26L310.63-11.26L310.63-11.26Q310.63-11.59 310.46-11.93L310.46-11.93L310.46-11.93Q310.13-13.27 309.96-14.87L309.96-14.87L309.96-14.87Q309.79-16.46 309.79-17.81L309.79-17.81L309.79-17.81Q309.96-18.98 309.79-19.49L309.79-19.49L309.79-19.49Q309.96-23.52 310.97-25.87L310.97-25.87L311.30-27.72L311.30-27.72Q311.30-28.73 311.98-29.23L311.98-29.23L311.98-29.23Q312.14-31.08 312.98-31.92L312.98-31.92L312.98-31.92Q313.32-32.42 313.99-33.77L313.99-33.77L313.99-33.77Q315.00-34.78 315.00-34.94L315.00-34.94L315.00-35.11L315.00-35.11Q316.01-35.78 316.01-35.95L316.01-35.95L316.01-35.95Q317.69-37.80 319.03-38.64L319.03-38.64L319.03-38.64Q320.38-39.48 322.06-40.32L322.06-40.32L322.06-40.32Q327.60-42.50 331.13-42.50L331.13-42.50L331.13-42.50Q332.30-42.50 332.81-42.34L332.81-42.34L332.81-42.34Q333.48-43.01 335.16-43.01L335.16-43.01L335.16-43.01Q336.67-43.01 337.34-42.50L337.34-42.50L337.34-42.50Q338.52-42.17 338.94-42L338.94-42L338.94-42Q339.36-41.83 339.86-41.50L339.86-41.50L339.86-41.50Q340.20-41.16 340.45-41.16L340.45-41.16L340.45-41.16Q340.70-41.16 341.04-40.99L341.04-40.99L341.04-40.99Q342.55-40.82 342.89-40.49L342.89-40.49L343.39-40.15L343.39-40.15Q344.74-39.82 345.58-39.82L345.58-39.82L345.58-39.82Q347.76-39.82 348.60-41.16L348.60-41.16L348.60-41.16Q348.77-41.33 349.02-41.66L349.02-41.66L349.02-41.66Q349.27-42 349.27-42.34L349.27-42.34L349.27-42.34Q349.27-43.01 349.61-43.68L349.61-43.68L349.61-43.68Q349.78-44.02 349.61-44.69L349.61-44.69L349.61-44.69Q349.44-45.36 349.27-45.86L349.27-45.86L349.27-45.86Q349.27-49.73 349.02-53.59L349.02-53.59L349.02-53.59Q348.77-57.46 347.93-61.32L347.93-61.32L347.93-61.32Q347.59-62.33 347.42-63.25L347.42-63.25L347.42-63.25Q347.26-64.18 346.42-64.68L346.42-64.68L346.42-64.68Q344.90-69.22 341.71-71.74L341.71-71.74L341.71-71.74Q340.70-71.74 340.20-72.41L340.20-72.41L338.86-72.91L338.86-72.91Q337.68-73.42 336.50-73.42L336.50-73.42L336.50-73.42Q336.17-73.42 336.00-73.33L336.00-73.33L336.00-73.33Q335.83-73.25 335.50-73.25L335.50-73.25L335.50-73.25Q334.15-72.91 332.98-72.91L332.98-72.91L332.98-72.91Q332.81-73.08 332.30-73.08L332.30-73.08L332.30-73.08Q331.97-73.08 331.80-72.91L331.80-72.91L330.46-72.58L330.46-72.58Q330.12-72.74 329.28-72.74L329.28-72.74L329.28-72.74Q328.61-72.74 327.10-71.99L327.10-71.99L327.10-71.99Q325.58-71.23 325.25-70.90L325.25-70.90L325.25-70.90Q324.74-70.56 324.24-70.48L324.24-70.48L324.24-70.48Q323.74-70.39 323.40-70.22L323.40-70.22L323.40-70.22Q322.90-69.89 322.48-69.72L322.48-69.72L322.48-69.72Q322.06-69.55 321.72-69.05L321.72-69.05L321.72-69.05Q321.55-68.88 320.71-68.21L320.71-68.21L320.71-68.21Q319.54-67.54 318.70-65.86L318.70-65.86L318.70-65.86Q318.02-65.02 317.27-63.76L317.27-63.76L317.27-63.76Q316.51-62.50 316.51-61.99L316.51-61.99L316.85-60.48L316.85-60.48Q317.52-59.98 317.69-59.14L317.69-59.14L317.69-59.14Q318.53-57.29 318.86-57.29L318.86-57.29L319.20-56.95L321.05-56.95L321.05-56.95Q322.06-56.95 322.73-57.29L322.73-57.29L322.73-57.29Q323.40-57.62 324.24-57.62L324.24-57.62L324.24-57.62Q324.58-58.63 324.24-59.98L324.24-59.98L324.24-59.98Q324.07-60.65 324.41-61.82L324.41-61.82L324.41-61.82Q325.42-63.67 326.59-64.85L326.59-64.85L326.59-64.85Q327.77-66.02 329.78-66.53L329.78-66.53L329.78-66.53Q330.12-66.70 330.96-67.20L330.96-67.20L330.96-67.20Q331.63-67.54 332.14-67.54L332.14-67.54L332.14-67.54Q333.31-66.86 333.82-66.86L333.82-66.86L334.15-66.86L334.15-66.86Q336.50-66.53 337.60-65.94L337.60-65.94L337.60-65.94Q338.69-65.35 339.53-64.01L339.53-64.01L339.53-64.01Q339.86-63.00 339.86-62.50L339.86-62.50L339.86-62.50Q339.86-61.66 340.70-61.15L340.70-61.15L340.70-61.15Q340.70-59.81 340.79-58.97L340.79-58.97L340.79-58.97Q340.87-58.13 341.21-57.46L341.21-57.46L341.21-57.46Q341.54-56.78 341.12-56.03L341.12-56.03L341.12-56.03Q340.70-55.27 340.37-54.43L340.37-54.43L340.37-54.43Q339.53-53.42 339.36-53.26L339.36-53.26L339.36-53.26Q339.19-52.42 338.60-51.83L338.60-51.83L338.60-51.83Q338.02-51.24 337.51-50.57L337.51-50.57L337.51-50.57Q337.18-50.23 337.01-49.81L337.01-49.81L337.01-49.81Q336.84-49.39 336.00-49.06L336.00-49.06L333.31-48.05L333.31-48.05Q331.80-47.21 331.21-46.96L331.21-46.96L331.21-46.96Q330.62-46.70 330.29-46.70L330.29-46.70L330.29-46.70Q329.78-46.70 328.78-46.37L328.78-46.37L328.78-46.37Q326.93-45.53 326.59-45.86L326.59-45.86L326.59-45.86Q324.91-45.86 324.41-45.70L324.41-45.70L324.41-45.70Q323.90-45.53 323.23-45.53L323.23-45.53L322.73-45.53L321.05-45.86L321.05-45.86Q319.54-45.86 318.70-47.04L318.70-47.04L318.70-47.04Q318.02-48.05 316.01-48.05L316.01-48.05L316.01-48.05Q314.50-49.06 313.49-49.56L313.49-49.56L313.49-49.56Q312.31-49.90 312.14-50.74L312.14-50.74L312.14-50.74Q311.14-51.41 310.63-51.83L310.63-51.83L310.63-51.83Q310.13-52.25 309.79-52.58L309.79-52.58L309.79-52.58Q309.46-52.92 309.20-53.17L309.20-53.17L309.20-53.17Q308.95-53.42 308.62-53.59L308.62-53.59L308.62-53.59Q308.28-54.43 308.03-55.02L308.03-55.02L308.03-55.02Q307.78-55.61 307.44-56.28L307.44-56.28L307.44-56.28Q306.60-57.62 306.52-58.97L306.52-58.97L306.52-58.97Q306.43-60.31 306.43-61.66L306.43-61.66L306.43-61.66Q306.43-63.00 306.77-64.43L306.77-64.43L306.77-64.43Q307.10-65.86 307.44-66.70L307.44-66.70L307.44-66.70Q307.61-67.03 307.78-67.45L307.78-67.45L307.78-67.45Q307.94-67.87 308.11-68.38L308.11-68.38L308.11-68.38Q308.95-70.39 309.37-70.98L309.37-70.98L309.37-70.98Q309.79-71.57 310.13-71.90L310.13-71.90L310.13-71.90Q311.47-74.42 312.40-75.01L312.40-75.01L312.40-75.01Q313.32-75.60 314.50-76.27L314.50-76.27L314.50-76.27Q315.67-76.94 316.51-77.36L316.51-77.36L316.51-77.36Q317.35-77.78 318.19-78.12L318.19-78.12L318.19-78.12Q319.20-78.46 321.22-78.79L321.22-78.79L321.22-78.79Q322.56-78.96 323.82-79.13L323.82-79.13L323.82-79.13Q325.08-79.30 326.42-80.14L326.42-80.14L326.42-80.14Q330.29-80.14 333.82-80.64L333.82-80.64L333.82-80.64Q334.15-80.47 334.99-80.81L334.99-80.81L338.02-80.81L338.86-80.81L338.86-80.81Q340.20-80.81 341.04-80.64L341.04-80.64L341.04-80.64Q343.73-79.80 345.32-79.46L345.32-79.46L345.32-79.46Q346.92-79.13 347.93-78.29L347.93-78.29L347.93-78.29Q352.30-77.62 354.14-73.92L354.14-73.92L354.14-73.92Q354.14-73.25 354.31-72.91L354.31-72.91L354.31-72.91Q354.48-72.58 354.65-72.24L354.65-72.24L354.65-72.24Q354.98-71.23 354.98-70.90L354.98-70.90L354.98-70.90Q355.49-70.06 355.99-69.55L355.99-69.55L355.99-69.55Q356.50-69.05 357.00-68.21L357.00-68.21L357.00-68.21Q357.50-67.37 357.76-66.70L357.76-66.70L357.76-66.70Q358.01-66.02 358.34-65.35L358.34-65.35L358.34-65.35Q358.68-64.68 358.93-64.09L358.93-64.09L358.93-64.09Q359.18-63.50 359.52-62.83L359.52-62.83L359.52-62.83Q359.86-62.16 360.02-61.74L360.02-61.74L360.02-61.74Q360.19-61.32 360.53-60.48L360.53-60.48L361.03-59.14L361.03-59.14Q361.03-58.30 361.54-57.46L361.54-57.46L361.54-57.46Q361.70-57.12 361.70-56.78L361.70-56.78L361.70-56.78Q361.70-56.45 361.87-56.11L361.87-56.11L361.87-56.11Q361.54-54.94 362.04-54.10L362.04-54.10L362.04-54.10Q362.38-52.92 362.04-52.42L362.04-52.42L362.04-52.42Q362.71-51.24 362.71-49.90L362.71-49.90L362.71-46.87L362.71-46.87Q362.71-45.36 362.80-44.77L362.80-44.77L362.80-44.77Q362.88-44.18 363.05-43.85L363.05-43.85L363.05-43.85Q363.38-43.18 363.05-42.34L363.05-42.34L363.05-42.34Q362.71-41.16 363.05-41.16L363.05-41.16L363.05-41.16Q363.22-38.98 362.96-37.97L362.96-37.97L362.96-37.97Q362.71-36.96 362.71-36.12L362.71-36.12L362.71-36.12Q362.71-35.28 362.54-34.61L362.54-34.61L362.54-34.61Q362.38-33.94 362.21-33.43L362.21-33.43L362.21-33.43Q362.38-30.41 361.87-29.40L361.87-29.40L361.87-29.40Q361.37-25.37 360.86-21.84L360.86-21.84L360.86-21.84Q361.20-20.50 361.12-19.49L361.12-19.49L361.12-19.49Q361.03-18.48 360.86-16.80L360.86-16.80L360.86-16.80Q361.03-14.95 361.20-13.61L361.20-13.61L361.20-13.61Q361.37-12.26 362.21-11.26L362.21-11.26L365.40-10.58L365.40-10.58Q366.41-10.25 366.41-9.58L366.41-9.58L366.41-9.58Q366.74-8.90 367.00-8.48L367.00-8.48L367.00-8.48Q367.25-8.06 367.58-7.73L367.58-7.73L367.58-7.73Q368.42-6.55 368.42-5.88L368.42-5.88L368.42-5.88Q368.42-5.54 368.34-3.86L368.34-3.86L368.34-3.86Q368.26-2.18 368.09-1.85L368.09-1.85ZM325.25-28.22L324.58-26.88L324.58-26.88Q324.24-25.54 323.90-24.95L323.90-24.95L323.90-24.95Q323.57-24.36 323.57-24.02L323.57-24.02L323.57-24.02Q323.57-22.18 323.48-21.42L323.48-21.42L323.48-21.42Q323.40-20.66 323.23-19.82L323.23-19.82L323.23-19.82Q322.56-17.98 323.06-16.63L323.06-16.63L323.06-16.63Q323.23-15.79 323.48-14.87L323.48-14.87L323.48-14.87Q323.74-13.94 324.07-13.61L324.07-13.61L324.07-13.61Q324.24-11.93 325.42-11.00L325.42-11.00L325.42-11.00Q326.59-10.08 328.10-9.41L328.10-9.41L328.10-9.41Q328.78-9.24 329.95-9.24L329.95-9.24L329.95-9.24Q331.30-9.24 332.30-9.74L332.30-9.74L332.30-9.74Q333.65-10.42 335.16-10.42L335.16-10.42L335.16-10.42Q336.50-11.42 337.85-11.42L337.85-11.42L337.85-11.42Q339.70-12.60 339.53-12.60L339.53-12.60L339.53-12.60Q340.70-13.10 342.89-14.20L342.89-14.20L342.89-14.20Q345.07-15.29 345.58-16.30L345.58-16.30L345.58-16.30Q346.58-17.47 346.58-20.16L346.58-20.16L346.58-20.16Q346.58-21 346.92-21.34L346.92-21.34L346.92-21.34Q347.26-21.67 347.17-21.92L347.17-21.92L347.17-21.92Q347.09-22.18 347.09-22.51L347.09-22.51L347.09-22.51Q346.42-23.35 346.42-24.19L346.42-24.19L346.42-24.19Q346.58-24.70 346.50-25.12L346.50-25.12L346.50-25.12Q346.42-25.54 346.42-25.70L346.42-25.70L345.58-28.06L345.58-28.06Q345.41-28.39 345.32-28.73L345.32-28.73L345.32-28.73Q345.24-29.06 345.24-29.57L345.24-29.57L345.24-29.57Q344.74-30.41 344.32-31.00L344.32-31.00L344.32-31.00Q343.90-31.58 343.56-31.58L343.56-31.58L343.56-31.58Q343.06-31.58 342.05-31.92L342.05-31.92L342.05-31.92Q341.71-31.75 340.87-31.75L340.87-31.75L340.87-31.75Q340.03-31.75 339.70-32.09L339.70-32.09L339.70-32.09Q339.36-32.42 338.52-32.42L338.52-32.42L338.52-32.42Q337.68-32.42 337.34-32.09L337.34-32.09L337.34-32.09Q336.00-32.09 334.74-31.75L334.74-31.75L334.74-31.75Q333.48-31.42 332.14-30.91L332.14-30.91L332.14-30.91Q329.78-29.57 327.43-28.90L327.43-28.90L327.43-28.90Q326.59-28.73 326.17-28.64L326.17-28.64L326.17-28.64Q325.75-28.56 325.25-28.22L325.25-28.22ZM365.40-75.43L365.40-75.43L365.40-75.43Q367.75-74.76 368.59-73.08L368.59-73.08L368.59-73.08Q369.10-72.07 369.26-70.98L369.26-70.98L369.26-70.98Q369.43-69.89 368.59-69.05L368.59-69.05L368.59-69.05Q367.25-67.87 366.83-67.62L366.83-67.62L366.83-67.62Q366.41-67.37 366.07-67.37L366.07-67.37L366.07-67.37Q365.57-67.37 364.90-67.70L364.90-67.70L362.38-68.71L362.38-68.71Q360.70-70.39 360.70-73.08L360.70-73.08L360.70-73.08Q361.03-73.42 361.28-73.75L361.28-73.75L361.28-73.75Q361.54-74.09 361.87-74.42L361.87-74.42L361.87-74.42Q362.38-74.93 363.05-74.93L363.05-74.93L363.55-74.93L363.55-74.93Q364.06-75.43 365.40-75.43ZM308.45-1.18L308.45-1.18L309.29-1.18L309.29-1.18Q310.46-1.18 311.22-0.59L311.22-0.59L311.22-0.59Q311.98 0 311.64 1.18L311.64 1.18L311.64 1.18Q311.64 1.68 311.56 2.18L311.56 2.18L311.56 2.18Q311.47 2.69 311.14 2.69L311.14 2.69L311.14 2.69Q310.46 2.69 309.62 3.53L309.62 3.53L309.62 3.53Q307.94 3.19 307.52 1.51L307.52 1.51L307.52 1.51Q307.10-0.17 308.45-1.18ZM367.42-26.88L367.42-26.88L367.42-26.88Q369.43-26.71 369.85-25.79L369.85-25.79L369.85-25.79Q370.27-24.86 369.94-24.02L369.94-24.02L369.94-24.02Q369.10-23.35 368.42-23.35L368.42-23.35L368.42-23.35Q367.42-23.69 367.25-24.86L367.25-24.86L367.25-24.86Q367.08-26.04 367.42-26.88ZM366.74-13.10L366.74-13.10L366.41-13.61L366.41-13.61Q365.40-14.95 365.57-15.79L365.57-15.79L365.57-15.79Q365.74-16.46 365.74-18.14L365.74-18.14L365.74-18.14Q366.58-19.15 366.91-19.15L366.91-19.15L366.91-19.15Q371.11-19.66 371.28-18.14L371.28-18.14L371.28-18.14Q371.78-16.80 371.62-16.30L371.62-16.30L371.62-16.30Q371.28-15.96 371.28-15.62L371.28-15.62L371.28-15.62Q371.28-15.29 371.11-14.95L371.11-14.95L371.11-14.95Q370.27-14.11 368.93-13.61L368.93-13.61L368.93-13.61Q367.58-13.10 366.74-13.10Z" fill="#444"></path></g></g><style>text {
  font-size: 64px;
  font-family: Arial Black;
  dominant-baseline: central;
  text-anchor: middle;
}</style></svg>